<svg xmlns="http://www.w3.org/2000/svg" xmlns:xlink="http://www.w3.org/1999/xlink" viewBox="0 0 1536 1024" width="1536" height="1024" role="img" aria-label="Why Multi-Agent Multi-Session">
<title>Why Multi-Agent Multi-Session</title>
<!-- Text: Comic Neue, SIL Open Font License 1.1, outlined. Icons: Lucide, ISC licence. GitHub mark: Octicons, MIT licence. -->
<defs><path id="r-A" d="M520 -7C539 -7 552 9 552 24C552 32 549 39 546 48L335 662C330 675 318 683 305 683C293 683 280 676 274 663L114 254L64 243C50 240 40 227 40 212C40 195 52 182 68 181C73 181 80 182 86 184L31 43C28 35 27 30 27 26C27 8 39 -6 57 -6C70 -6 82 2 86 14L159 198L408 253L490 15C494 1 507 -7 520 -7ZM186 270 301 562 386 313Z"/><path id="r-C" d="M337 -6C433 -6 519 36 575 112C580 118 581 125 581 131C581 152 565 163 549 163C539 163 532 161 524 151C474 86 410 57 337 57C221 57 114 144 114 291C114 462 237 613 356 613C426 613 463 581 482 563V555C482 538 496 524 514 524C532 524 546 539 546 556V620C546 638 532 651 515 651C503 651 493 645 489 637C458 657 419 676 356 676C202 676 48 493 48 291C48 110 180 -6 337 -6Z"/><path id="r-G" d="M350 -7C504 -7 604 93 635 219C640 217 647 216 650 216C665 217 679 229 679 247C679 261 673 273 659 277C646 282 607 294 549 294C498 294 440 286 411 276C396 271 389 258 389 245C389 225 404 213 420 213C438 213 469 230 546 230H572C544 123 460 57 350 57C225 57 113 156 113 325C113 414 178 613 366 613C488 613 545 543 569 480C574 466 587 459 600 459C618 459 631 470 631 487C631 529 555 677 366 677C171 677 48 492 48 325C48 123 186 -7 350 -7Z"/><path id="r-M" d="M71 -6C86 -6 99 3 102 19L213 522L374 16C378 2 390 -6 403 -6C417 -6 429 2 433 14L620 531L734 19C737 4 748 -6 765 -6C783 -6 796 8 796 22C796 30 794 40 791 50L657 650C654 665 643 675 629 675C615 675 602 668 597 655L405 124L238 654C234 665 223 675 208 675C193 675 180 666 177 650L45 47C42 37 41 26 41 22C41 10 51 -6 71 -6Z"/><path id="r-O" d="M300 -6C460 -6 595 157 595 362C595 542 493 676 343 676C183 676 48 512 48 307C48 128 151 -6 300 -6ZM304 56C199 56 114 153 114 309C114 481 218 614 338 614C446 614 529 511 529 359C529 193 425 56 304 56Z"/><path id="r-P" d="M115 -6C133 -6 147 8 147 26V230C287 231 538 284 538 470C538 602 417 676 165 676C87 676 83 666 83 632V26C83 8 98 -6 115 -6ZM147 293V612C155 613 171 613 182 613C370 613 475 562 475 470C475 322 233 294 147 293Z"/><path id="r-R" d="M115 -6C132 -6 146 8 146 26V234C179 239 219 243 238 243C279 243 374 232 507 12C514 1 524 -6 535 -6C554 -6 567 10 567 26C567 30 566 36 563 40C500 167 405 243 361 271C452 303 542 360 542 467C542 599 416 674 191 674H162C94 674 83 668 83 631V26C83 8 97 -6 115 -6ZM146 296V611C160 612 179 612 188 612C371 612 479 563 479 467C479 347 287 300 146 296Z"/><path id="r-S" d="M273 -6C396 -6 506 75 506 187C506 280 435 344 291 384C184 414 130 451 130 510C130 578 188 619 293 619C381 619 438 583 444 533C445 519 458 506 474 506C491 506 505 520 505 538C505 620 430 676 296 676C152 676 66 604 66 507C66 399 176 348 275 321C402 286 442 240 442 182C442 110 373 54 273 54C190 54 117 98 95 160C90 176 79 186 62 186C43 186 28 171 28 153C28 147 31 138 34 133C66 53 151 -6 273 -6Z"/><path id="r-T" d="M261 -6C279 -6 293 9 293 26V607H482C500 607 513 621 513 638C513 656 500 670 482 670H41C24 670 9 656 9 638C9 621 24 607 41 607H230V26C230 9 244 -6 261 -6Z"/><path id="r-V" d="M253 -6C264 -6 277 -1 283 14L526 631C528 637 528 640 528 644C528 659 516 674 497 674C485 674 473 668 467 655L256 118L75 653C70 666 57 674 45 674C25 674 13 661 13 644C13 640 14 633 16 627L223 15C227 3 240 -6 253 -6Z"/><path id="r-W" d="M233 -6C248 -6 259 0 264 16L431 534L573 17C578 1 589 -6 604 -6C617 -6 629 2 633 14L856 633C857 638 858 643 858 648C858 662 845 677 827 677C814 677 802 669 797 656L607 130L463 653C460 667 447 675 434 675C420 675 408 668 403 654L234 131L76 653C71 666 60 675 45 675C28 675 15 663 15 645C15 641 16 635 20 622L204 16C207 3 220 -6 233 -6Z"/><path id="r-a" d="M407 -14C425 -14 438 1 438 19V452C421 460 359 493 286 493C131 493 46 341 46 210C46 81 127 -6 235 -6C288 -6 341 17 376 47V19C376 1 386 -14 407 -14ZM235 53C162 53 110 114 110 212C110 340 188 434 288 434C320 434 359 422 377 414L373 111C350 88 293 53 235 53Z"/><path id="r-b" d="M109 -6C126 -6 139 8 139 21V29C169 16 222 1 271 1C422 1 489 114 489 265C489 401 418 485 314 485C247 485 183 457 140 408V653C140 670 125 681 110 681C93 681 78 670 78 653V23C78 7 93 -6 109 -6ZM263 61C210 61 158 78 140 86V287C140 362 216 422 313 422C382 422 429 366 429 265C429 142 385 61 263 61Z"/><path id="r-c" d="M264 -6C348 -6 416 40 447 86C453 94 457 101 457 109C457 125 443 139 426 139C414 139 405 131 398 121C370 81 329 52 264 52C193 52 107 108 107 213C107 325 189 435 271 435C321 435 348 413 374 382C380 375 387 371 397 371C414 371 427 385 427 402C427 409 424 418 419 423C381 467 343 493 269 493C153 493 46 349 46 211C46 88 146 -6 264 -6Z"/><path id="r-comma" d="M58 -98C78 -98 81 -81 102 -29C117 7 124 23 124 42C124 59 108 77 88 77C66 77 45 55 45 29C45 17 50 7 56 -1L33 -62C32 -65 31 -69 31 -72C31 -86 43 -98 58 -98Z"/><path id="r-d" d="M220 -6C295 -6 350 36 385 70L384 29C383 11 396 -6 415 -6C432 -6 447 7 447 24L462 655C462 673 447 688 431 688C414 688 398 674 398 656L393 457C361 474 314 492 260 492C127 492 46 392 46 220C46 78 122 -6 220 -6ZM221 53C153 53 108 115 108 223C108 353 159 432 263 432C318 432 373 406 392 395L387 164C386 127 320 53 221 53Z"/><path id="r-e" d="M295 -6C356 -6 425 26 460 66C464 71 468 79 468 86C468 103 455 116 438 116C430 116 422 112 418 106C391 77 338 52 294 52C217 52 159 85 125 149L435 326C452 336 459 347 459 358C459 402 400 493 271 493C135 493 46 370 46 234C46 105 144 -6 295 -6ZM106 205C104 217 104 226 104 237C106 346 174 434 272 434C341 434 379 410 397 366Z"/><path id="r-f" d="M118 -6C134 -6 149 8 149 23V436H281C297 436 310 450 310 466C310 481 294 494 281 494L149 495C150 607 186 622 300 622C319 622 330 637 330 653C330 676 312 682 288 682C148 682 88 636 87 495H14C1 495 -13 481 -13 466C-13 450 1 436 16 436H86V23C86 8 101 -6 118 -6Z"/><path id="r-five" d="M252 -6C371 -6 480 109 480 250C480 388 391 480 272 480C220 480 178 463 147 446L163 605H421C438 605 453 618 453 636C453 653 438 667 421 667H135C120 667 105 655 103 639L77 380C75 361 88 344 109 344C119 344 125 347 133 355C152 374 197 418 272 418C373 418 418 333 418 250C418 146 340 57 252 57C188 57 147 86 110 134C103 144 98 150 83 150C66 150 51 136 51 119C51 114 52 108 55 104C69 72 139 -6 252 -6Z"/><path id="r-four" d="M340 -6C356 -6 371 9 371 25V157L402 156C418 156 432 171 432 188C432 205 418 219 402 219L371 220V645C371 663 358 676 340 676C328 676 319 671 312 660L39 210C36 205 34 200 34 193C34 177 48 162 65 162L308 158V25C308 9 322 -6 340 -6ZM308 221 121 224 308 533Z"/><path id="r-g" d="M236 -188C352 -188 439 -125 442 16L453 473C453 492 438 505 421 505C397 505 390 487 390 464C364 478 328 494 283 494C148 494 46 368 46 233C46 96 132 -5 245 -5C299 -4 347 22 381 68L379 18C375 -69 338 -126 235 -126C163 -126 141 -112 121 -112C104 -112 89 -125 89 -143C89 -158 100 -170 114 -173C145 -180 189 -188 236 -188ZM237 55C143 55 103 157 103 231C103 346 186 432 287 432C324 432 364 419 385 402V261C385 104 306 55 237 55Z"/><path id="r-h" d="M110 -7C127 -7 141 5 141 26V188C141 221 144 250 156 274C171 306 247 434 329 434C363 434 406 403 406 150C406 89 404 41 404 24C404 8 419 -6 435 -6C452 -6 464 7 465 24C468 58 468 91 468 157C468 383 435 496 334 496C255 496 178 418 141 342V649C141 666 129 681 110 681C92 681 78 666 78 649V24C78 8 93 -7 110 -7Z"/><path id="r-i" d="M117 572C133 572 148 584 148 602L149 643C149 658 135 674 119 674C103 674 87 660 87 644L86 603C86 586 100 572 117 572ZM111 -6C128 -6 143 9 143 26L149 460C149 478 135 493 117 493C100 493 84 478 84 460L78 26C78 9 93 -6 111 -6Z"/><path id="r-k" d="M110 -6C128 -6 142 9 142 25V195C162 207 193 227 228 255C260 215 359 90 420 8C426 1 435 -3 445 -3C464 -3 476 13 476 30C476 39 472 44 467 50C415 116 311 242 275 291C318 329 395 408 437 463C440 468 444 474 444 482C444 498 430 512 413 512C402 512 393 506 388 498C315 404 197 294 141 256L140 649C140 666 126 681 108 681C91 681 77 668 77 651L79 25C79 9 94 -6 110 -6Z"/><path id="r-l" d="M110 -6C125 -6 141 7 141 22V651C141 668 126 681 110 681C92 681 78 668 78 651V22C78 7 94 -6 110 -6Z"/><path id="r-m" d="M110 -6C127 -6 141 8 141 24V173C141 251 150 285 186 336C221 385 273 434 322 434C376 434 399 399 399 315V24C399 8 414 -6 431 -6C449 -6 462 8 462 24V250C462 365 562 434 617 434C668 434 696 400 696 315V24C696 8 710 -6 727 -6C744 -6 759 8 759 24V308C759 442 701 493 625 493C571 493 506 463 455 380C436 470 379 493 330 493C262 493 185 434 141 347V462C141 478 128 493 110 493C93 493 78 478 78 462V24C78 8 93 -6 110 -6Z"/><path id="r-n" d="M110 -6C128 -6 140 9 140 27L141 116C142 189 159 256 204 338C238 400 285 434 329 434C396 434 423 398 423 210C423 111 424 70 424 25C424 9 438 -6 454 -6C472 -6 484 9 484 26C484 72 485 112 485 214C485 414 447 493 338 493C251 493 180 426 141 306V464C141 481 127 494 110 494C93 494 78 481 78 464V23C78 8 93 -6 110 -6Z"/><path id="r-o" d="M249 -6C375 -6 482 117 482 264C482 392 394 493 280 493C145 493 46 359 46 224C46 95 134 -6 249 -6ZM253 51C179 51 111 119 111 226C111 335 185 436 275 436C356 436 418 353 418 259C418 148 340 51 253 51Z"/><path id="r-one" d="M97 0H312C328 0 343 14 343 31C343 48 331 63 310 63H244L252 645C252 661 240 677 220 677C214 677 203 673 198 667L72 530C66 524 63 516 63 509C63 492 76 477 94 477C103 477 111 480 117 487L189 564L181 63H97C79 63 66 48 66 31C66 14 79 0 97 0Z"/><path id="r-p" d="M110 -198C126 -198 141 -183 141 -167V30C172 17 216 2 265 2C442 2 485 156 485 270C485 382 428 494 323 494C234 494 178 465 141 421V462C141 480 127 494 110 494C92 494 78 480 78 462V-167C78 -183 93 -198 110 -198ZM271 65C216 65 161 88 141 97V354C158 379 214 438 315 438C401 438 428 336 428 270C428 150 385 65 271 65Z"/><path id="r-parenleft" d="M259 -112C273 -112 289 -99 289 -82C289 -71 285 -65 279 -59C195 36 123 179 123 344C123 529 228 671 292 729C300 736 303 744 303 753C303 770 288 785 272 785C265 785 257 781 246 772C135 667 60 513 60 344C60 129 164 -19 231 -99C237 -106 245 -112 259 -112Z"/><path id="r-parenright" d="M88 -112C101 -112 110 -106 115 -99C206 7 286 158 286 344C286 513 211 667 100 772C89 781 81 785 75 785C58 785 43 770 43 753C43 744 48 736 55 729C138 651 224 512 224 344C224 177 143 22 67 -59C60 -65 57 -73 57 -82C57 -99 73 -112 88 -112Z"/><path id="r-period" d="M70 -6C92 -6 113 16 113 44C113 66 97 83 77 83C55 83 34 60 34 35C34 12 49 -6 70 -6Z"/><path id="r-r" d="M110 -6C126 -6 141 8 141 23L142 244C142 278 155 323 176 350C210 395 253 434 298 434C325 434 332 421 332 405V382C332 367 339 351 361 351C379 351 392 364 392 381V413C392 451 374 496 309 496C226 496 172 431 142 378V463C142 480 128 493 110 493C93 493 78 480 78 463V23C78 8 94 -6 110 -6Z"/><path id="r-s" d="M206 -8C312 -8 378 67 378 140C378 216 338 245 224 283C145 309 110 328 110 371C110 413 150 438 223 438C291 438 320 415 320 380C320 371 317 366 317 358C317 343 330 330 348 330C367 330 379 346 379 379C379 448 324 493 223 493C109 493 51 442 51 372C51 299 98 260 204 227C299 199 319 177 319 137C319 90 274 49 209 49C144 49 100 80 81 133C77 147 67 154 53 154C36 154 23 141 23 124C23 85 82 -8 206 -8Z"/><path id="r-six" d="M273 -6C387 -6 479 89 479 239C479 373 393 442 288 442C229 442 183 424 148 404C183 497 260 576 356 619C366 623 373 633 373 646C373 663 361 675 344 675C336 675 331 673 324 670C211 614 59 488 59 244C59 59 167 -6 273 -6ZM274 54C184 54 118 109 118 244C118 268 119 291 123 314C142 333 199 382 288 382C361 382 421 339 421 239C421 127 358 54 274 54Z"/><path id="r-slash" d="M59 -122C70 -122 80 -117 83 -108L396 635C399 641 405 651 405 660C405 672 392 686 377 686C367 686 356 682 351 672L34 -79C32 -84 31 -89 31 -95C31 -109 42 -122 59 -122Z"/><path id="r-t" d="M135 -7C151 -7 166 7 166 23V431H278C296 431 310 446 310 463C310 481 296 494 278 494H166V631C166 648 154 663 135 663C117 663 103 648 103 631V494H-6C-23 494 -39 482 -39 463C-39 446 -25 431 -8 431H103V23C103 7 118 -7 135 -7Z"/><path id="r-three" d="M236 -6C317 -6 443 49 443 200C443 279 405 347 333 380C389 412 428 465 428 527C428 613 343 680 235 680C177 680 128 660 99 642C71 624 65 611 65 600C65 586 75 569 96 569C104 569 109 572 118 579C133 590 167 617 235 617C319 617 365 570 365 527C365 463 287 409 218 409C200 409 187 396 187 378C187 361 200 347 217 347C263 347 381 321 381 200C381 102 302 57 234 57C149 57 107 113 94 136C89 147 80 153 66 153C49 153 36 141 36 124C36 120 36 112 41 104C47 91 104 -6 236 -6Z"/><path id="r-two" d="M65 0H434C451 0 466 14 466 30C466 48 451 62 434 62H129C136 180 214 235 291 285C373 338 457 389 457 504C457 598 378 674 268 674C185 674 124 629 89 595C66 574 60 564 60 553C60 538 73 521 92 521C107 521 115 532 123 541C130 549 187 612 268 612C339 612 394 566 394 504C394 422 327 383 251 335C152 271 65 200 65 30Z"/><path id="r-u" d="M214 -9C288 -9 352 33 378 67V29C378 9 392 -6 413 -6C430 -6 446 9 446 25V466C446 483 432 494 416 494C401 494 386 483 386 466L382 161C382 149 382 130 370 116C350 93 282 47 215 47C149 47 124 105 124 244C124 390 136 430 136 464C136 483 123 494 107 494C88 494 79 483 75 457C67 410 62 338 63 244C65 49 110 -9 214 -9Z"/><path id="r-underscore" d="M4 -61H487C503 -61 518 -48 518 -30C518 -13 503 2 487 2H4C-14 2 -27 -13 -27 -30C-27 -48 -14 -61 4 -61Z"/><path id="r-v" d="M204 -7C220 -7 228 2 233 13L409 449C411 453 413 457 413 463C413 479 399 494 381 494C368 494 357 486 352 475L204 101L57 472C51 485 42 493 28 493C10 493 -5 480 -5 462C-5 457 -4 455 -3 451L175 15C180 3 190 -7 204 -7Z"/><path id="r-w" d="M140 -6C152 -6 164 4 169 17L297 370L386 19C390 3 403 -6 416 -6C432 -6 442 4 447 18L585 452C586 455 588 458 588 462C588 479 573 493 556 493C543 493 530 483 526 469L419 110L333 467C330 481 316 494 301 494C286 494 273 483 269 471L146 115L76 467C73 483 62 494 45 494C28 494 15 480 15 464C15 460 16 454 17 448L107 21C111 6 123 -6 140 -6Z"/><path id="r-x" d="M425 -6C442 -6 456 8 456 25C456 32 454 39 450 45L279 249L466 439C472 445 475 453 475 461C475 477 460 492 444 492C436 492 427 489 421 483L238 292L80 485C74 492 66 494 58 494C41 494 27 479 27 463C27 454 31 447 36 441L194 252L-4 49C-11 42 -13 34 -13 26C-13 10 0 -5 17 -5C25 -5 33 -3 40 4L235 209L402 3C408 -4 416 -6 425 -6Z"/><path id="r-y" d="M125 -200C139 -200 149 -191 155 -180L444 450C447 455 447 458 447 464C447 482 433 495 416 495C401 495 391 485 386 475L229 132L59 473C54 484 43 494 29 494C11 494 -3 480 -3 462C-3 456 -1 450 1 445L195 58L98 -154C95 -159 94 -164 94 -168C94 -186 108 -200 125 -200Z"/><path id="r-zero" d="M294 -6C431 -6 543 160 543 353C543 528 448 679 316 679C176 679 66 509 66 319C66 146 161 -6 294 -6ZM294 56C195 56 127 183 127 321C127 483 215 617 316 617C412 617 483 491 483 351C483 190 394 56 294 56Z"/><path id="b-A" d="M494 -7C524 -7 544 16 544 41C544 53 541 60 537 72L338 649C330 673 311 682 292 682C272 682 253 671 245 651L97 275L60 267C38 262 22 243 22 219C22 198 32 183 48 175C51 173 54 172 57 171L17 71C13 61 10 50 10 41C10 15 33 -6 60 -6C84 -6 99 9 106 26L171 190L375 235L447 27C454 5 469 -7 494 -7ZM213 300 288 489 342 328Z"/><path id="b-M" d="M75 -6C101 -6 119 9 124 33L212 435L342 28C350 4 367 -6 388 -6C409 -6 428 6 435 26L589 450L681 32C686 10 702 -6 729 -6C758 -6 778 16 778 40C778 48 776 56 773 70L646 636C641 659 625 675 602 675C577 675 560 665 552 643L392 198L251 641C244 662 230 675 205 675C179 675 161 659 156 636L32 69C28 52 28 41 28 36C28 17 43 -6 75 -6Z"/><path id="b-S" d="M270 -6C400 -6 511 80 511 195C511 293 438 356 306 394C198 425 152 454 152 501C152 551 198 584 289 584C363 584 408 555 413 519C416 496 435 477 459 477C487 477 508 499 508 529C508 617 427 676 289 676C144 676 55 601 55 494C55 380 158 331 272 299C382 268 415 231 415 190C415 133 356 88 272 88C212 88 143 116 121 177C113 199 96 214 71 214C42 214 20 191 20 164C20 153 24 140 31 125C63 57 148 -6 270 -6Z"/><path id="b-W" d="M233 -6C256 -6 272 1 281 28L418 452L535 30C541 7 557 -6 583 -6C604 -6 621 6 628 26L839 610C844 625 844 634 844 642C844 667 823 686 796 686C772 686 756 673 748 651L588 208L469 640C462 664 445 675 423 675C400 675 383 665 375 641L235 209L104 640C97 662 81 675 56 675C29 675 8 656 8 631C8 623 8 617 13 599L187 28C194 6 208 -6 233 -6Z"/><path id="b-e" d="M286 -6C348 -6 417 27 453 68C461 77 465 86 465 98C465 124 445 143 418 143C405 143 394 136 385 127C363 104 330 84 286 84C229 84 176 107 157 149L425 303C446 315 456 333 456 349C456 396 396 493 264 493C127 493 38 370 38 245C38 88 145 -6 286 -6ZM129 232C129 246 129 253 131 268C139 342 193 403 271 403C310 403 341 389 357 361Z"/><path id="b-g" d="M241 -174C359 -174 447 -110 450 33L460 455C461 492 438 504 413 504C387 504 372 494 367 476C344 485 315 494 284 494C149 494 46 368 46 225C46 83 144 3 248 3C289 3 329 18 353 49L351 25C346 -37 314 -78 240 -78C185 -78 158 -65 134 -65C109 -65 86 -86 86 -113C86 -136 102 -155 123 -160C153 -167 196 -174 241 -174ZM242 97C185 97 137 148 137 232C137 327 205 398 288 398C312 398 341 390 359 380V259C359 145 313 97 242 97Z"/><path id="b-h" d="M118 -7C144 -7 166 11 166 43V192C166 219 169 243 178 263C189 287 254 400 319 400C342 400 373 374 373 157C373 94 371 67 371 41C371 15 389 -6 418 -6C444 -6 464 14 465 39C468 67 468 103 468 164C468 385 433 495 325 495C266 495 208 455 166 402V617C166 643 148 666 120 666C92 666 70 643 70 617V41C70 16 93 -7 118 -7Z"/><path id="b-hyphen" d="M92 197H317C343 197 364 219 364 244C364 270 343 291 317 291H92C68 291 45 270 45 244C45 219 68 197 92 197Z"/><path id="b-i" d="M124 535C151 535 171 555 172 582L173 620C174 644 151 668 126 668C101 668 79 647 78 621L77 584C76 558 99 535 124 535ZM119 -6C145 -6 168 16 168 43L173 441C173 468 152 490 124 490C98 490 75 468 75 441L70 43C70 16 92 -6 119 -6Z"/><path id="b-l" d="M118 -6C141 -6 166 14 166 39V619C166 645 143 666 118 666C90 666 70 645 70 619V39C70 14 93 -6 118 -6Z"/><path id="b-n" d="M118 -6C148 -6 165 16 165 44V128C165 202 176 248 206 302C240 364 282 400 322 400C368 400 388 366 388 207V41C388 17 410 -6 436 -6C463 -6 482 17 482 42C482 99 483 133 483 217C483 426 440 493 331 493C263 493 204 450 166 370V446C166 473 145 494 120 494C94 494 70 473 70 446V40C70 16 92 -6 118 -6Z"/><path id="b-o" d="M244 -6C371 -6 479 116 479 262C479 385 389 493 272 493C145 493 38 370 38 226C38 98 127 -6 244 -6ZM244 84C190 84 136 134 136 227C136 320 197 403 268 403C331 403 381 334 381 257C381 165 316 84 244 84Z"/><path id="b-s" d="M214 -6C324 -6 393 72 393 147C393 223 353 257 245 291C173 314 144 329 144 361C144 388 168 409 232 409C283 409 303 392 303 369C303 361 298 354 298 345C298 326 316 304 345 304C377 304 395 327 395 368C395 443 336 493 230 493C114 493 52 434 52 359C52 284 98 242 206 209C281 186 299 172 299 142C299 113 271 80 216 80C166 80 132 106 118 147C112 166 96 180 73 180C47 180 26 159 26 133C26 97 87 -6 214 -6Z"/><path id="b-t" d="M157 -7C183 -7 205 14 205 40V397H290C317 397 338 420 338 445C338 473 317 494 290 494H205V601C205 626 186 650 157 650C130 650 109 626 109 601V494H32C6 494 -18 475 -18 445C-18 420 3 397 30 397H109V40C109 14 132 -7 157 -7Z"/><path id="b-u" d="M207 -9C267 -9 315 25 349 49V38C349 11 374 -6 400 -6C426 -6 448 17 448 42V448C448 475 425 494 400 494C377 494 353 475 353 448L351 163C351 151 349 142 345 138C328 119 271 81 217 81C181 81 151 108 151 256C151 357 163 430 163 447C163 479 140 494 115 494C86 494 73 475 68 443C61 398 57 328 57 278C57 41 106 -9 207 -9Z"/><path id="b-y" d="M139 -185C160 -185 176 -171 184 -154L451 426C454 432 455 440 455 446C455 474 435 495 411 495C390 495 373 481 365 464L239 185L98 464C91 478 76 494 52 494C24 494 2 472 2 445C2 436 5 427 8 421L187 72L100 -115C97 -122 95 -130 95 -136C95 -163 115 -185 139 -185Z"/></defs>
<g fill="#1d1e21" transform="translate(330 72.2) scale(0.06565 -0.06565)"><use xlink:href="#b-W" x="0"/><use xlink:href="#b-h" x="847"/><use xlink:href="#b-y" x="1375"/><use xlink:href="#b-M" x="2189"/><use xlink:href="#b-u" x="2995"/><use xlink:href="#b-l" x="3513"/><use xlink:href="#b-t" x="3749"/><use xlink:href="#b-i" x="4077"/><use xlink:href="#b-hyphen" x="4320"/><use xlink:href="#b-A" x="4741"/><use xlink:href="#b-g" x="5293"/><use xlink:href="#b-e" x="5841"/><use xlink:href="#b-n" x="6332"/><use xlink:href="#b-t" x="6875"/><use xlink:href="#b-M" x="7559"/><use xlink:href="#b-u" x="8365"/><use xlink:href="#b-l" x="8883"/><use xlink:href="#b-t" x="9119"/><use xlink:href="#b-i" x="9447"/><use xlink:href="#b-hyphen" x="9690"/><use xlink:href="#b-S" x="10099"/><use xlink:href="#b-e" x="10645"/><use xlink:href="#b-s" x="11136"/><use xlink:href="#b-s" x="11561"/><use xlink:href="#b-i" x="11986"/><use xlink:href="#b-o" x="12229"/><use xlink:href="#b-n" x="12746"/></g>
<g fill="#1d1e21" stroke="#1d1e21" stroke-width="36" stroke-linejoin="round" transform="translate(321.2 116.2) scale(0.02822 -0.02822)"><use xlink:href="#r-S" x="0"/><use xlink:href="#r-e" x="552"/><use xlink:href="#r-s" x="1053"/><use xlink:href="#r-s" x="1469"/><use xlink:href="#r-i" x="1885"/><use xlink:href="#r-o" x="2112"/><use xlink:href="#r-n" x="2641"/><use xlink:href="#r-i" x="3528"/><use xlink:href="#r-s" x="3755"/><use xlink:href="#r-t" x="4505"/><use xlink:href="#r-h" x="4791"/><use xlink:href="#r-e" x="5327"/><use xlink:href="#r-d" x="6162"/><use xlink:href="#r-a" x="6692"/><use xlink:href="#r-t" x="7208"/><use xlink:href="#r-a" x="7465"/><use xlink:href="#r-f" x="7981"/><use xlink:href="#r-l" x="8260"/><use xlink:href="#r-o" x="8479"/><use xlink:href="#r-w" x="9000"/><use xlink:href="#r-c" x="9932"/><use xlink:href="#r-o" x="10414"/><use xlink:href="#r-r" x="10943"/><use xlink:href="#r-e" x="11321"/><use xlink:href="#r-period" x="11822"/><use xlink:href="#r-A" x="12309"/><use xlink:href="#r-g" x="12890"/><use xlink:href="#r-e" x="13420"/><use xlink:href="#r-n" x="13921"/><use xlink:href="#r-t" x="14474"/><use xlink:href="#r-s" x="14760"/><use xlink:href="#r-a" x="15510"/><use xlink:href="#r-r" x="16026"/><use xlink:href="#r-e" x="16404"/><use xlink:href="#r-t" x="17239"/><use xlink:href="#r-r" x="17525"/><use xlink:href="#r-a" x="17903"/><use xlink:href="#r-n" x="18419"/><use xlink:href="#r-s" x="18972"/><use xlink:href="#r-f" x="19396"/><use xlink:href="#r-o" x="19657"/><use xlink:href="#r-r" x="20186"/><use xlink:href="#r-m" x="20583"/><use xlink:href="#r-a" x="21410"/><use xlink:href="#r-t" x="21926"/><use xlink:href="#r-i" x="22212"/><use xlink:href="#r-o" x="22439"/><use xlink:href="#r-n" x="22968"/><use xlink:href="#r-l" x="23855"/><use xlink:href="#r-a" x="24074"/><use xlink:href="#r-y" x="24590"/><use xlink:href="#r-e" x="25022"/><use xlink:href="#r-r" x="25523"/><use xlink:href="#r-s" x="25920"/><use xlink:href="#r-o" x="26670"/><use xlink:href="#r-n" x="27199"/><use xlink:href="#r-S" x="28086"/><use xlink:href="#r-e" x="28638"/><use xlink:href="#r-s" x="29139"/><use xlink:href="#r-s" x="29555"/><use xlink:href="#r-i" x="29971"/><use xlink:href="#r-o" x="30198"/><use xlink:href="#r-n" x="30727"/><use xlink:href="#r-period" x="31280"/></g>
<g fill="#1d1e21" stroke="#1d1e21" stroke-width="36" stroke-linejoin="round" transform="translate(77.3 164.2) scale(0.02343 -0.02343)"><use xlink:href="#r-A" x="0"/><use xlink:href="#r-g" x="581"/><use xlink:href="#r-e" x="1111"/><use xlink:href="#r-n" x="1612"/><use xlink:href="#r-t" x="2165"/><use xlink:href="#r-s" x="2451"/><use xlink:href="#r-t" x="3201"/><use xlink:href="#r-r" x="3487"/><use xlink:href="#r-a" x="3865"/><use xlink:href="#r-n" x="4381"/><use xlink:href="#r-s" x="4934"/><use xlink:href="#r-f" x="5358"/><use xlink:href="#r-o" x="5619"/><use xlink:href="#r-r" x="6148"/><use xlink:href="#r-m" x="6545"/><use xlink:href="#r-S" x="7706"/><use xlink:href="#r-e" x="8258"/><use xlink:href="#r-s" x="8759"/><use xlink:href="#r-s" x="9175"/><use xlink:href="#r-i" x="9591"/><use xlink:href="#r-o" x="9818"/><use xlink:href="#r-n" x="10347"/></g>
<path d="M76.5 173.8 L332.5 172.2" fill="none" stroke="#c0621f" stroke-width="3" stroke-linecap="round" stroke-linejoin="round"/>
<g fill="#1d1e21" stroke="#1d1e21" stroke-width="36" stroke-linejoin="round" transform="translate(582.2 164.2) scale(0.02578 -0.02578)"><use xlink:href="#r-S" x="0"/><use xlink:href="#r-e" x="552"/><use xlink:href="#r-s" x="1053"/><use xlink:href="#r-s" x="1469"/><use xlink:href="#r-i" x="1885"/><use xlink:href="#r-o" x="2112"/><use xlink:href="#r-n" x="2641"/><use xlink:href="#r-G" x="3528"/><use xlink:href="#r-r" x="4244"/><use xlink:href="#r-a" x="4622"/><use xlink:href="#r-p" x="5138"/><use xlink:href="#r-h" x="5669"/><use xlink:href="#r-parenleft" x="6539"/><use xlink:href="#r-d" x="6885"/><use xlink:href="#r-a" x="7415"/><use xlink:href="#r-t" x="7931"/><use xlink:href="#r-a" x="8188"/><use xlink:href="#r-f" x="8704"/><use xlink:href="#r-l" x="8983"/><use xlink:href="#r-o" x="9202"/><use xlink:href="#r-w" x="9723"/><use xlink:href="#r-c" x="10655"/><use xlink:href="#r-o" x="11137"/><use xlink:href="#r-r" x="11666"/><use xlink:href="#r-e" x="12044"/><use xlink:href="#r-parenright" x="12545"/></g>
<path d="M581.5 173.5 L914.5 173.1" fill="none" stroke="#1f4592" stroke-width="3" stroke-linecap="round" stroke-linejoin="round"/>
<g fill="#1d1e21" stroke="#1d1e21" stroke-width="36" stroke-linejoin="round" transform="translate(1220.6 164.2) scale(0.02231 -0.02231)"><use xlink:href="#r-W" x="0"/><use xlink:href="#r-o" x="827"/><use xlink:href="#r-r" x="1356"/><use xlink:href="#r-k" x="1753"/><use xlink:href="#r-f" x="2237"/><use xlink:href="#r-l" x="2516"/><use xlink:href="#r-o" x="2735"/><use xlink:href="#r-w" x="3256"/><use xlink:href="#r-c" x="4188"/><use xlink:href="#r-o" x="4670"/><use xlink:href="#r-m" x="5199"/><use xlink:href="#r-p" x="6026"/><use xlink:href="#r-o" x="6557"/><use xlink:href="#r-s" x="7079"/><use xlink:href="#r-e" x="7492"/><use xlink:href="#r-s" x="7993"/><use xlink:href="#r-l" x="8743"/><use xlink:href="#r-a" x="8962"/><use xlink:href="#r-y" x="9478"/><use xlink:href="#r-e" x="9910"/><use xlink:href="#r-r" x="10411"/><use xlink:href="#r-s" x="10808"/></g>
<path d="M1219.5 173.7 L1472.5 174.1" fill="none" stroke="#4d2f82" stroke-width="3" stroke-linecap="round" stroke-linejoin="round"/>
<g fill="#1d1e21" stroke="#1d1e21" stroke-width="36" stroke-linejoin="round" transform="translate(148.3 650.2) scale(0.02450 -0.02450)"><use xlink:href="#r-S" x="0"/><use xlink:href="#r-e" x="552"/><use xlink:href="#r-s" x="1053"/><use xlink:href="#r-s" x="1469"/><use xlink:href="#r-i" x="1885"/><use xlink:href="#r-o" x="2112"/><use xlink:href="#r-n" x="2641"/><use xlink:href="#r-i" x="3528"/><use xlink:href="#r-s" x="3755"/><use xlink:href="#r-s" x="4505"/><use xlink:href="#r-t" x="4921"/><use xlink:href="#r-r" x="5207"/><use xlink:href="#r-u" x="5604"/><use xlink:href="#r-c" x="6115"/><use xlink:href="#r-t" x="6597"/><use xlink:href="#r-u" x="6883"/><use xlink:href="#r-r" x="7394"/><use xlink:href="#r-e" x="7772"/><use xlink:href="#r-d" x="8273"/><use xlink:href="#r-s" x="9137"/><use xlink:href="#r-t" x="9553"/><use xlink:href="#r-a" x="9810"/><use xlink:href="#r-t" x="10326"/><use xlink:href="#r-e" x="10583"/></g>
<path d="M146.5 658.9 L422.5 658.9" fill="none" stroke="#1f4592" stroke-width="3" stroke-linecap="round" stroke-linejoin="round"/>
<g fill="#1d1e21" stroke="#1d1e21" stroke-width="36" stroke-linejoin="round" transform="translate(580.7 650.2) scale(0.02378 -0.02378)"><use xlink:href="#r-T" x="0"/><use xlink:href="#r-o" x="429"/><use xlink:href="#r-o" x="958"/><use xlink:href="#r-l" x="1487"/><use xlink:href="#r-s" x="1706"/><use xlink:href="#r-e" x="2456"/><use xlink:href="#r-x" x="2957"/><use xlink:href="#r-e" x="3409"/><use xlink:href="#r-c" x="3910"/><use xlink:href="#r-u" x="4392"/><use xlink:href="#r-t" x="4903"/><use xlink:href="#r-e" x="5160"/><use xlink:href="#r-t" x="5995"/><use xlink:href="#r-h" x="6281"/><use xlink:href="#r-r" x="6817"/><use xlink:href="#r-o" x="7197"/><use xlink:href="#r-u" x="7726"/><use xlink:href="#r-g" x="8237"/><use xlink:href="#r-h" x="8767"/><use xlink:href="#r-S" x="9637"/><use xlink:href="#r-a" x="10189"/><use xlink:href="#r-n" x="10705"/><use xlink:href="#r-d" x="11258"/><use xlink:href="#r-b" x="11788"/><use xlink:href="#r-o" x="12323"/><use xlink:href="#r-x" x="12827"/></g>
<path d="M581.5 658.8 L898.5 658.3" fill="none" stroke="#2b5e2e" stroke-width="3" stroke-linecap="round" stroke-linejoin="round"/>
<g fill="#1d1e21" stroke="#1d1e21" stroke-width="36" stroke-linejoin="round" transform="translate(1087 650.2) scale(0.02305 -0.02305)"><use xlink:href="#r-M" x="0"/><use xlink:href="#r-e" x="838"/><use xlink:href="#r-m" x="1339"/><use xlink:href="#r-o" x="2166"/><use xlink:href="#r-r" x="2695"/><use xlink:href="#r-y" x="3092"/><use xlink:href="#r-s" x="3873"/><use xlink:href="#r-u" x="4289"/><use xlink:href="#r-r" x="4800"/><use xlink:href="#r-v" x="5197"/><use xlink:href="#r-i" x="5615"/><use xlink:href="#r-v" x="5842"/><use xlink:href="#r-e" x="6240"/><use xlink:href="#r-s" x="6741"/><use xlink:href="#r-r" x="7491"/><use xlink:href="#r-u" x="7888"/><use xlink:href="#r-n" x="8399"/><use xlink:href="#r-s" x="8952"/></g>
<path d="M1085.5 658.8 L1305.5 658.2" fill="none" stroke="#c0621f" stroke-width="3" stroke-linecap="round" stroke-linejoin="round"/>
<circle cx="103.7" cy="208.8" r="14.3" fill="none" stroke="#c0621f" stroke-width="3.2"/>
<path d="M82.2 247.5 C82.2 240.1 87.5 224.3 103.6 224.3 C119.6 224.3 124.9 240.1 124.9 247.5" fill="none" stroke="#c0621f" stroke-width="3.2" stroke-linecap="round" stroke-linejoin="round"/>
<g fill="#1d1e21" stroke="#1d1e21" stroke-width="36" stroke-linejoin="round" transform="translate(146 219.2) scale(0.02279 -0.02279)"><use xlink:href="#r-P" x="0"/><use xlink:href="#r-l" x="560"/><use xlink:href="#r-a" x="779"/><use xlink:href="#r-n" x="1295"/><use xlink:href="#r-n" x="1848"/><use xlink:href="#r-e" x="2401"/><use xlink:href="#r-r" x="2902"/></g>
<g fill="#c0621f" stroke="#c0621f" stroke-width="36" stroke-linejoin="round" transform="translate(146.6 246.2) scale(0.02256 -0.02256)"><use xlink:href="#r-parenleft" x="0"/><use xlink:href="#r-A" x="346"/><use xlink:href="#r-g" x="927"/><use xlink:href="#r-e" x="1457"/><use xlink:href="#r-n" x="1958"/><use xlink:href="#r-t" x="2511"/><use xlink:href="#r-parenright" x="2797"/></g>
<circle cx="103.3" cy="287.6" r="14.5" fill="none" stroke="#1f4592" stroke-width="3.2"/>
<path d="M81.6 326.5 C81.6 319 87 303.2 103.1 303.2 C119.2 303.2 124.6 319 124.6 326.5" fill="none" stroke="#1f4592" stroke-width="3.2" stroke-linecap="round" stroke-linejoin="round"/>
<g fill="#1d1e21" stroke="#1d1e21" stroke-width="36" stroke-linejoin="round" transform="translate(146 297.2) scale(0.02276 -0.02276)"><use xlink:href="#r-R" x="0"/><use xlink:href="#r-e" x="584"/><use xlink:href="#r-s" x="1085"/><use xlink:href="#r-e" x="1498"/><use xlink:href="#r-a" x="1999"/><use xlink:href="#r-r" x="2515"/><use xlink:href="#r-c" x="2882"/><use xlink:href="#r-h" x="3364"/><use xlink:href="#r-e" x="3900"/><use xlink:href="#r-r" x="4401"/></g>
<g fill="#1f4592" stroke="#1f4592" stroke-width="36" stroke-linejoin="round" transform="translate(146.5 324.2) scale(0.02288 -0.02288)"><use xlink:href="#r-parenleft" x="0"/><use xlink:href="#r-A" x="346"/><use xlink:href="#r-g" x="927"/><use xlink:href="#r-e" x="1457"/><use xlink:href="#r-n" x="1958"/><use xlink:href="#r-t" x="2511"/><use xlink:href="#r-parenright" x="2797"/></g>
<circle cx="103.1" cy="366.9" r="14.9" fill="none" stroke="#2b5e2e" stroke-width="3.2"/>
<path d="M82 406.5 C82 399 87.2 383.2 103 383.2 C118.8 383.2 124 399 124 406.5" fill="none" stroke="#2b5e2e" stroke-width="3.2" stroke-linecap="round" stroke-linejoin="round"/>
<g fill="#1d1e21" stroke="#1d1e21" stroke-width="36" stroke-linejoin="round" transform="translate(146.8 378.2) scale(0.02232 -0.02232)"><use xlink:href="#r-C" x="0"/><use xlink:href="#r-o" x="614"/><use xlink:href="#r-d" x="1143"/><use xlink:href="#r-e" x="1673"/><use xlink:href="#r-r" x="2174"/></g>
<g fill="#2b5e2e" stroke="#2b5e2e" stroke-width="36" stroke-linejoin="round" transform="translate(146.6 405.2) scale(0.02190 -0.02190)"><use xlink:href="#r-parenleft" x="0"/><use xlink:href="#r-A" x="346"/><use xlink:href="#r-g" x="927"/><use xlink:href="#r-e" x="1457"/><use xlink:href="#r-n" x="1958"/><use xlink:href="#r-t" x="2511"/><use xlink:href="#r-parenright" x="2797"/></g>
<circle cx="102.5" cy="444.8" r="14.6" fill="none" stroke="#4d2f82" stroke-width="3.2"/>
<path d="M80.2 484.5 C80.2 476.8 85.6 460.5 101.8 460.5 C118.1 460.5 123.5 476.8 123.5 484.5" fill="none" stroke="#4d2f82" stroke-width="3.2" stroke-linecap="round" stroke-linejoin="round"/>
<g fill="#1d1e21" stroke="#1d1e21" stroke-width="36" stroke-linejoin="round" transform="translate(146 456.2) scale(0.02270 -0.02270)"><use xlink:href="#r-R" x="0"/><use xlink:href="#r-e" x="584"/><use xlink:href="#r-v" x="1085"/><use xlink:href="#r-i" x="1503"/><use xlink:href="#r-e" x="1730"/><use xlink:href="#r-w" x="2231"/><use xlink:href="#r-e" x="2811"/><use xlink:href="#r-r" x="3312"/></g>
<g fill="#4d2f82" stroke="#4d2f82" stroke-width="36" stroke-linejoin="round" transform="translate(146.6 482.2) scale(0.02125 -0.02125)"><use xlink:href="#r-parenleft" x="0"/><use xlink:href="#r-A" x="346"/><use xlink:href="#r-g" x="927"/><use xlink:href="#r-e" x="1457"/><use xlink:href="#r-n" x="1958"/><use xlink:href="#r-t" x="2511"/><use xlink:href="#r-parenright" x="2797"/></g>
<path d="M262 221.3 C324.1 214.8 367.7 240.1 407.5 286.7" fill="none" stroke="#1d1e21" stroke-width="3.3" stroke-linecap="round" stroke-linejoin="round"/>
<path d="M391.7 282 L407.5 286.7 L405.3 270.3" fill="none" stroke="#1d1e21" stroke-width="3.3" stroke-linecap="round" stroke-linejoin="round"/>
<path d="M274 298.5 C317.3 294 356.7 306 397.9 317.3" fill="none" stroke="#1d1e21" stroke-width="3.3" stroke-linecap="round" stroke-linejoin="round"/>
<path d="M382.2 322.3 L397.9 317.3 L386.9 305" fill="none" stroke="#1d1e21" stroke-width="3.3" stroke-linecap="round" stroke-linejoin="round"/>
<path d="M263 379.5 C310 380.7 358.7 369.4 398.7 344.2" fill="none" stroke="#1d1e21" stroke-width="3.3" stroke-linecap="round" stroke-linejoin="round"/>
<path d="M391.8 359.2 L398.7 344.2 L382.2 344" fill="none" stroke="#1d1e21" stroke-width="3.3" stroke-linecap="round" stroke-linejoin="round"/>
<path d="M262 453.8 C328 452.7 378.9 415.2 415.3 361.7" fill="none" stroke="#1d1e21" stroke-width="3.3" stroke-linecap="round" stroke-linejoin="round"/>
<path d="M414.9 378.2 L415.3 361.7 L400.1 368.1" fill="none" stroke="#1d1e21" stroke-width="3.3" stroke-linecap="round" stroke-linejoin="round"/>
<circle cx="443.6" cy="320.8" r="32.9" fill="none" stroke="#1f4592" stroke-width="2.8"/>
<g fill="#1d1e21" stroke="#1d1e21" stroke-width="36" stroke-linejoin="round" transform="translate(426.7 330.9) scale(0.03500 -0.03500)"><use xlink:href="#r-S" x="0"/></g>
<g fill="#1d1e21" stroke="#1d1e21" stroke-width="36" stroke-linejoin="round" transform="translate(445.9 333.1) scale(0.02500 -0.02500)"><use xlink:href="#r-zero" x="0"/></g>
<circle cx="593.3" cy="321" r="30.5" fill="none" stroke="#20366f" stroke-width="2.8"/>
<g fill="#1d1e21" stroke="#1d1e21" stroke-width="36" stroke-linejoin="round" transform="translate(577.7 330.9) scale(0.03500 -0.03500)"><use xlink:href="#r-S" x="0"/></g>
<g fill="#1d1e21" stroke="#1d1e21" stroke-width="36" stroke-linejoin="round" transform="translate(596.9 334.2) scale(0.02500 -0.02500)"><use xlink:href="#r-one" x="0"/></g>
<circle cx="713" cy="225.6" r="31.2" fill="none" stroke="#1d1e21" stroke-width="2.8"/>
<g fill="#1d1e21" stroke="#1d1e21" stroke-width="36" stroke-linejoin="round" transform="translate(695.7 235.9) scale(0.03500 -0.03500)"><use xlink:href="#r-S" x="0"/></g>
<g fill="#1d1e21" stroke="#1d1e21" stroke-width="36" stroke-linejoin="round" transform="translate(715.4 239.2) scale(0.02500 -0.02500)"><use xlink:href="#r-two" x="0"/></g>
<circle cx="713.6" cy="394" r="30.9" fill="none" stroke="#1d1e21" stroke-width="2.8"/>
<g fill="#1d1e21" stroke="#1d1e21" stroke-width="36" stroke-linejoin="round" transform="translate(697.2 403.9) scale(0.03500 -0.03500)"><use xlink:href="#r-S" x="0"/></g>
<g fill="#1d1e21" stroke="#1d1e21" stroke-width="36" stroke-linejoin="round" transform="translate(716.5 408.1) scale(0.02500 -0.02500)"><use xlink:href="#r-three" x="0"/></g>
<circle cx="915.5" cy="225.1" r="31.4" fill="none" stroke="#1d1e21" stroke-width="2.8"/>
<g fill="#1d1e21" stroke="#1d1e21" stroke-width="36" stroke-linejoin="round" transform="translate(898.7 234.9) scale(0.03500 -0.03500)"><use xlink:href="#r-S" x="0"/></g>
<g fill="#1d1e21" stroke="#1d1e21" stroke-width="36" stroke-linejoin="round" transform="translate(919.2 239.1) scale(0.02500 -0.02500)"><use xlink:href="#r-four" x="0"/></g>
<circle cx="913" cy="394.4" r="31.2" fill="none" stroke="#1d1e21" stroke-width="2.8"/>
<g fill="#1d1e21" stroke="#1d1e21" stroke-width="36" stroke-linejoin="round" transform="translate(896.7 403.9) scale(0.03500 -0.03500)"><use xlink:href="#r-S" x="0"/></g>
<g fill="#1d1e21" stroke="#1d1e21" stroke-width="36" stroke-linejoin="round" transform="translate(915.9 409.1) scale(0.02500 -0.02500)"><use xlink:href="#r-five" x="0"/></g>
<circle cx="1062" cy="327.6" r="33" fill="none" stroke="#1d2958" stroke-width="2.8"/>
<g fill="#1d1e21" stroke="#1d1e21" stroke-width="36" stroke-linejoin="round" transform="translate(1045.7 337.9) scale(0.03500 -0.03500)"><use xlink:href="#r-S" x="0"/></g>
<g fill="#1d1e21" stroke="#1d1e21" stroke-width="36" stroke-linejoin="round" transform="translate(1065.3 342.1) scale(0.02500 -0.02500)"><use xlink:href="#r-six" x="0"/></g>
<path d="M626.9 480.7 A29.3 29.3 0 1 1 570.3 465.7 A29.3 29.3 0 1 1 626.9 480.7" fill="none" stroke="#1d1e21" stroke-width="2.6" stroke-linecap="round" stroke-linejoin="round" stroke-dasharray="9.15 6.19"/>
<g fill="#1d1e21" stroke="#1d1e21" stroke-width="36" stroke-linejoin="round" transform="translate(583.7 482) scale(0.03100 -0.03100)"><use xlink:href="#r-S" x="0"/></g>
<g fill="#1d1e21" stroke="#1d1e21" stroke-width="36" stroke-linejoin="round" transform="translate(600.5 483.3) scale(0.02200 -0.02200)"><use xlink:href="#r-one" x="0"/></g>
<path d="M615 464.2 L612.2 469.8" fill="none" stroke="#1d1e21" stroke-width="2.2" stroke-linecap="round" stroke-linejoin="round"/>
<path d="M487 320.5 L552.5 320.5" fill="none" stroke="#1d1e21" stroke-width="3.2" stroke-linecap="round" stroke-linejoin="round"/>
<path d="M538.7 329.5 L552.5 320.5 L538.7 311.5" fill="none" stroke="#1d1e21" stroke-width="3.2" stroke-linecap="round" stroke-linejoin="round"/>
<path d="M756 224.7 L871.5 224.7" fill="none" stroke="#1d1e21" stroke-width="3.2" stroke-linecap="round" stroke-linejoin="round"/>
<path d="M857.7 233.7 L871.5 224.7 L857.7 215.7" fill="none" stroke="#1d1e21" stroke-width="3.2" stroke-linecap="round" stroke-linejoin="round"/>
<path d="M756 393.9 L869.5 393.9" fill="none" stroke="#1d1e21" stroke-width="3.2" stroke-linecap="round" stroke-linejoin="round"/>
<path d="M855.7 402.9 L869.5 393.9 L855.7 384.9" fill="none" stroke="#1d1e21" stroke-width="3.2" stroke-linecap="round" stroke-linejoin="round"/>
<path d="M608.3 284.8 C627.8 264 648.6 246.5 671.6 229.4" fill="none" stroke="#1d1e21" stroke-width="3.2" stroke-linecap="round" stroke-linejoin="round"/>
<path d="M665.9 244.9 L671.6 229.4 L655.1 230.4" fill="none" stroke="#1d1e21" stroke-width="3.2" stroke-linecap="round" stroke-linejoin="round"/>
<path d="M622.8 346.3 C638.8 360.5 655.5 372.7 674 383.6" fill="none" stroke="#1d1e21" stroke-width="3.2" stroke-linecap="round" stroke-linejoin="round"/>
<path d="M657.5 384.3 L674 383.6 L666.6 368.8" fill="none" stroke="#1d1e21" stroke-width="3.2" stroke-linecap="round" stroke-linejoin="round"/>
<path d="M957.2 227.8 C989.6 237.7 1018.9 262.4 1040 288.4" fill="none" stroke="#1d1e21" stroke-width="3.2" stroke-linecap="round" stroke-linejoin="round"/>
<path d="M1024.3 283.3 L1040 288.4 L1038.3 272" fill="none" stroke="#1d1e21" stroke-width="3.2" stroke-linecap="round" stroke-linejoin="round"/>
<path d="M953.2 393.8 C979.9 389.3 1005.3 370.2 1025 352.6" fill="none" stroke="#1d1e21" stroke-width="3.2" stroke-linecap="round" stroke-linejoin="round"/>
<path d="M1020.7 368.5 L1025 352.6 L1008.7 355.1" fill="none" stroke="#1d1e21" stroke-width="3.2" stroke-linecap="round" stroke-linejoin="round"/>
<path d="M593.9 360.5 L595.4 436" fill="none" stroke="#1d1e21" stroke-width="2.7" stroke-linecap="round" stroke-linejoin="round" stroke-dasharray="10.5 6"/>
<path d="M588.2 424 L595.4 436 L602.2 423.7" fill="none" stroke="#1d1e21" stroke-width="2.7" stroke-linecap="round" stroke-linejoin="round"/>
<path d="M634.5 474.4 L850 474.4 C933.6 474.4 1034 461.2 1061 371" fill="none" stroke="#1d1e21" stroke-width="3" stroke-linecap="round" stroke-linejoin="round" stroke-dasharray="9.7 8.1"/>
<path d="M1065.1 384.9 L1061 371 L1049.9 380.4" fill="none" stroke="#1d1e21" stroke-width="3.2" stroke-linecap="round" stroke-linejoin="round"/>
<path d="M1110.4 297.9 A25.5 25.5 0 1 1 1110.9 334.6" fill="none" stroke="#1d1e21" stroke-width="3" stroke-linecap="round" stroke-linejoin="round" stroke-dasharray="8 7.87"/>
<path d="M1108.4 301.4 L1104.3 314" fill="none" stroke="#1d1e21" stroke-width="3" stroke-linecap="round" stroke-linejoin="round"/>
<path d="M1101.4 304.4 L1104.3 314 L1112.3 308" fill="none" stroke="#1d1e21" stroke-width="3" stroke-linecap="round" stroke-linejoin="round"/>
<g fill="#1f4592" stroke="#1f4592" stroke-width="36" stroke-linejoin="round" transform="translate(560.2 257.2) scale(0.02336 -0.02336)"><use xlink:href="#r-f" x="0"/><use xlink:href="#r-o" x="261"/><use xlink:href="#r-r" x="790"/><use xlink:href="#r-k" x="1187"/></g>
<g fill="#1f4592" stroke="#1f4592" stroke-width="36" stroke-linejoin="round" transform="translate(512.8 411.2) scale(0.02332 -0.02332)"><use xlink:href="#r-d" x="0"/><use xlink:href="#r-e" x="530"/><use xlink:href="#r-t" x="1031"/><use xlink:href="#r-a" x="1288"/><use xlink:href="#r-c" x="1804"/><use xlink:href="#r-h" x="2286"/></g>
<g fill="#1f4592" stroke="#1f4592" stroke-width="36" stroke-linejoin="round" transform="translate(1030.2 257.2) scale(0.02112 -0.02112)"><use xlink:href="#r-m" x="0"/><use xlink:href="#r-e" x="827"/><use xlink:href="#r-r" x="1328"/><use xlink:href="#r-g" x="1695"/><use xlink:href="#r-e" x="2225"/></g>
<g fill="#1f4592" stroke="#1f4592" stroke-width="36" stroke-linejoin="round" transform="translate(961.3 483.2) scale(0.02075 -0.02075)"><use xlink:href="#r-m" x="0"/><use xlink:href="#r-e" x="827"/><use xlink:href="#r-r" x="1328"/><use xlink:href="#r-g" x="1695"/><use xlink:href="#r-e" x="2225"/></g>
<g fill="#1f4592" stroke="#1f4592" stroke-width="36" stroke-linejoin="round" transform="translate(1137.2 367.2) scale(0.02209 -0.02209)"><use xlink:href="#r-l" x="0"/><use xlink:href="#r-o" x="219"/><use xlink:href="#r-o" x="748"/><use xlink:href="#r-p" x="1277"/></g>
<path d="M1242.5 197.2 C1231 197.5 1227 207 1227 222 L1227.8 296 C1227.8 311 1222 318.5 1209.5 319.3 C1222 320 1228 327 1228 342 L1227.7 430 C1227.7 443 1231 449.5 1242 450.2" fill="none" stroke="#1d1e21" stroke-width="3.2" stroke-linecap="round" stroke-linejoin="round"/>
<rect x="1261" y="196.6" width="211.5" height="69.7" rx="16" fill="none" stroke="#c0621f" stroke-width="2.3"/>
<rect x="1261" y="275.6" width="211.8" height="68.8" rx="16" fill="none" stroke="#1f4592" stroke-width="2.3"/>
<rect x="1261" y="354.4" width="212.2" height="64.8" rx="16" fill="none" stroke="#2b5e2e" stroke-width="2.3"/>
<rect x="1261" y="428.7" width="213.2" height="77.7" rx="16" fill="none" stroke="#4d2f82" stroke-width="2.3"/>
<circle cx="1305" cy="220.3" r="12.2" fill="none" stroke="#c0621f" stroke-width="3.2"/>
<path d="M1286.3 253.5 C1286.3 247.1 1290.9 233.6 1304.8 233.6 C1318.6 233.6 1323.2 247.1 1323.2 253.5" fill="none" stroke="#c0621f" stroke-width="3.2" stroke-linecap="round" stroke-linejoin="round"/>
<circle cx="1304.5" cy="298.8" r="12.4" fill="none" stroke="#1f4592" stroke-width="3.2"/>
<path d="M1285.8 332.5 C1285.8 326 1290.5 312.3 1304.4 312.3 C1318.4 312.3 1323.1 326 1323.1 332.5" fill="none" stroke="#1f4592" stroke-width="3.2" stroke-linecap="round" stroke-linejoin="round"/>
<g fill="#1d1e21" stroke="#1d1e21" stroke-width="36" stroke-linejoin="round" transform="translate(1359.3 240.2) scale(0.02174 -0.02174)"><use xlink:href="#r-A" x="0"/><use xlink:href="#r-g" x="581"/><use xlink:href="#r-e" x="1111"/><use xlink:href="#r-n" x="1612"/><use xlink:href="#r-t" x="2165"/></g>
<g fill="#1d1e21" stroke="#1d1e21" stroke-width="36" stroke-linejoin="round" transform="translate(1359.3 319.2) scale(0.02214 -0.02214)"><use xlink:href="#r-A" x="0"/><use xlink:href="#r-g" x="581"/><use xlink:href="#r-e" x="1111"/><use xlink:href="#r-n" x="1612"/><use xlink:href="#r-t" x="2165"/></g>
<path d="M1284 368.4 L1324.4 368.4 L1309 389.6 L1309 400.6 L1300.4 407.4 L1300.4 389.6 Z" fill="none" stroke="#1d1e21" stroke-width="2.6" stroke-linecap="round" stroke-linejoin="round"/>
<g fill="#1d1e21" stroke="#1d1e21" stroke-width="36" stroke-linejoin="round" transform="translate(1350.9 396.2) scale(0.01934 -0.01934)"><use xlink:href="#r-C" x="0"/><use xlink:href="#r-o" x="614"/><use xlink:href="#r-m" x="1143"/><use xlink:href="#r-p" x="1970"/><use xlink:href="#r-r" x="2501"/><use xlink:href="#r-e" x="2879"/><use xlink:href="#r-s" x="3380"/><use xlink:href="#r-s" x="3796"/><use xlink:href="#r-o" x="4209"/><use xlink:href="#r-r" x="4738"/></g>
<rect x="1296.3" y="443.3" width="16.6" height="13.2" rx="2.5" fill="none" stroke="#4d2f82" stroke-width="2.5"/>
<rect x="1277.6" y="475.6" width="16.9" height="13.3" rx="2.5" fill="none" stroke="#4d2f82" stroke-width="2.5"/>
<rect x="1315.3" y="475.6" width="16.5" height="13.3" rx="2.5" fill="none" stroke="#4d2f82" stroke-width="2.5"/>
<path d="M1304.6 456.5 L1304.6 465.3 M1286.3 475.6 L1286.3 469.3 Q1286.3 465.3 1290.3 465.3 L1319.5 465.3 Q1323.5 465.3 1323.5 469.3 L1323.5 475.6" fill="none" stroke="#1d1e21" stroke-width="2.5" stroke-linecap="round" stroke-linejoin="round"/>
<g fill="#1d1e21" stroke="#1d1e21" stroke-width="36" stroke-linejoin="round" transform="translate(1343.9 462.2) scale(0.01955 -0.01955)"><use xlink:href="#r-C" x="0"/><use xlink:href="#r-h" x="614"/><use xlink:href="#r-i" x="1150"/><use xlink:href="#r-l" x="1377"/><use xlink:href="#r-d" x="1596"/><use xlink:href="#r-W" x="2460"/><use xlink:href="#r-o" x="3287"/><use xlink:href="#r-r" x="3816"/><use xlink:href="#r-k" x="4213"/><use xlink:href="#r-f" x="4697"/><use xlink:href="#r-l" x="4976"/><use xlink:href="#r-o" x="5195"/><use xlink:href="#r-w" x="5716"/></g>
<g fill="#4d2f82" stroke="#4d2f82" stroke-width="36" stroke-linejoin="round" transform="translate(1358.6 490.7) scale(0.02228 -0.02228)"><use xlink:href="#r-parenleft" x="0"/><use xlink:href="#r-n" x="346"/><use xlink:href="#r-e" x="899"/><use xlink:href="#r-s" x="1400"/><use xlink:href="#r-t" x="1816"/><use xlink:href="#r-e" x="2073"/><use xlink:href="#r-d" x="2574"/><use xlink:href="#r-parenright" x="3104"/></g>
<rect x="353.6" y="523" width="756.7" height="72.1" rx="17" fill="none" stroke="#1f4592" stroke-width="2.1" stroke-dasharray="11 8" stroke-linecap="round"/>
<path d="M387.4 542.8 A22.6 9.3 0 0 1 432.6 542.8 A22.6 9.3 0 0 1 387.4 542.8 Z" fill="none" stroke="#1f4592" stroke-width="3" stroke-linecap="round" stroke-linejoin="round"/>
<path d="M387.4 542.8 L387.4 576 A22.6 9.3 0 0 0 432.6 576 L432.6 542.8 M387.4 559.9 A22.6 9.3 0 0 0 432.6 559.9" fill="none" stroke="#1f4592" stroke-width="3" stroke-linecap="round" stroke-linejoin="round"/>
<g fill="#1d1e21" stroke="#1d1e21" stroke-width="36" stroke-linejoin="round" transform="translate(455.2 569.2) scale(0.02139 -0.02139)"><use xlink:href="#r-p" x="0"/><use xlink:href="#r-a" x="531"/><use xlink:href="#r-r" x="1047"/><use xlink:href="#r-e" x="1425"/><use xlink:href="#r-n" x="1926"/><use xlink:href="#r-t" x="2479"/><use xlink:href="#r-underscore" x="2765"/><use xlink:href="#r-s" x="3259"/><use xlink:href="#r-e" x="3672"/><use xlink:href="#r-s" x="4173"/><use xlink:href="#r-s" x="4589"/><use xlink:href="#r-i" x="5005"/><use xlink:href="#r-o" x="5232"/><use xlink:href="#r-n" x="5761"/><use xlink:href="#r-underscore" x="6314"/><use xlink:href="#r-i" x="6808"/><use xlink:href="#r-d" x="7035"/><use xlink:href="#r-s" x="7565"/></g>
<path d="M648.5 561.1 L694.5 561.1" fill="none" stroke="#1d1e21" stroke-width="3" stroke-linecap="round" stroke-linejoin="round"/>
<path d="M680.7 570.1 L694.5 561.1 L680.7 552.1" fill="none" stroke="#1d1e21" stroke-width="3" stroke-linecap="round" stroke-linejoin="round"/>
<path d="M735 542.3 L735 537.3 L742.5 537.3 L742.5 542.3 A18.1 18.1 0 0 1 748.6 544.8 L752.1 541.3 L757.4 546.6 L753.9 550.1 A18.1 18.1 0 0 1 756.4 556.2 L761.4 556.2 L761.4 563.8 L756.4 563.8 A18.1 18.1 0 0 1 753.9 569.9 L757.4 573.4 L752.1 578.7 L748.6 575.2 A18.1 18.1 0 0 1 742.5 577.7 L742.5 582.7 L735 582.7 L735 577.7 A18.1 18.1 0 0 1 728.8 575.2 L725.3 578.7 L720 573.4 L723.5 569.9 A18.1 18.1 0 0 1 721 563.8 L716 563.8 L716 556.2 L721 556.2 A18.1 18.1 0 0 1 723.5 550.1 L720 546.6 L725.3 541.3 L728.8 544.8 A18.1 18.1 0 0 1 735 542.3 Z" fill="none" stroke="#1f4592" stroke-width="3" stroke-linecap="round" stroke-linejoin="round"/>
<circle cx="738.7" cy="560" r="7.8" fill="none" stroke="#1f4592" stroke-width="3"/>
<g fill="#1d1e21" stroke="#1d1e21" stroke-width="36" stroke-linejoin="round" transform="translate(781.4 569.2) scale(0.01893 -0.01893)"><use xlink:href="#r-l" x="0"/><use xlink:href="#r-i" x="219"/><use xlink:href="#r-n" x="446"/><use xlink:href="#r-e" x="999"/><use xlink:href="#r-a" x="1500"/><use xlink:href="#r-g" x="2016"/><use xlink:href="#r-e" x="2546"/><use xlink:href="#r-underscore" x="3047"/><use xlink:href="#r-o" x="3541"/><use xlink:href="#r-p" x="4070"/><use xlink:href="#r-e" x="4601"/><use xlink:href="#r-r" x="5102"/><use xlink:href="#r-a" x="5480"/><use xlink:href="#r-t" x="5996"/><use xlink:href="#r-o" x="6253"/><use xlink:href="#r-r" x="6782"/></g>
<path d="M933.5 561.6 L960.5 561.6" fill="none" stroke="#1d1e21" stroke-width="2.6" stroke-linecap="round" stroke-linejoin="round"/>
<path d="M949.6 568.7 L960.5 561.6 L949.6 554.5" fill="none" stroke="#1d1e21" stroke-width="2.6" stroke-linecap="round" stroke-linejoin="round"/>
<path d="M984.6 574.6 L984.6 559.4 Q984.6 557.9 986.1 557.9 L990.7 557.9 Q992.2 557.9 992.2 559.4 L992.2 574.6" fill="none" stroke="#1f4592" stroke-width="2.8" stroke-linecap="round" stroke-linejoin="round"/>
<path d="M998.1 574.6 L998.1 542.6 Q998.1 541.1 999.6 541.1 L1004.7 541.1 Q1006.2 541.1 1006.2 542.6 L1006.2 574.6" fill="none" stroke="#1f4592" stroke-width="2.8" stroke-linecap="round" stroke-linejoin="round"/>
<path d="M1012.3 574.6 L1012.3 559 Q1012.3 557.5 1013.8 557.5 L1018.5 557.5 Q1020.0 557.5 1020.0 559 L1020.0 574.6" fill="none" stroke="#1f4592" stroke-width="2.8" stroke-linecap="round" stroke-linejoin="round"/>
<path d="M981.5 574.6 L1023.5 574.6" fill="none" stroke="#1f4592" stroke-width="2.8" stroke-linecap="round" stroke-linejoin="round"/>
<g fill="#1d1e21" stroke="#1d1e21" stroke-width="36" stroke-linejoin="round" transform="translate(1038.7 569.2) scale(0.01825 -0.01825)"><use xlink:href="#r-u" x="0"/><use xlink:href="#r-s" x="511"/><use xlink:href="#r-a" x="924"/><use xlink:href="#r-g" x="1440"/><use xlink:href="#r-e" x="1970"/></g>
<path d="M1122.5 557.5 L1179.5 557.5" fill="none" stroke="#1f4592" stroke-width="3" stroke-linecap="round" stroke-linejoin="round"/>
<path d="M1165.7 566.5 L1179.5 557.5 L1165.7 548.5" fill="none" stroke="#1f4592" stroke-width="3" stroke-linecap="round" stroke-linejoin="round"/>
<g fill="#1f4592" stroke="#1f4592" stroke-width="36" stroke-linejoin="round" transform="translate(1203.7 557.7) scale(0.02134 -0.02134)"><use xlink:href="#r-t" x="0"/><use xlink:href="#r-r" x="286"/><use xlink:href="#r-a" x="664"/><use xlink:href="#r-c" x="1180"/><use xlink:href="#r-e" x="1662"/><use xlink:href="#r-a" x="2163"/><use xlink:href="#r-b" x="2679"/><use xlink:href="#r-l" x="3214"/><use xlink:href="#r-e" x="3433"/><use xlink:href="#r-l" x="4268"/><use xlink:href="#r-i" x="4487"/><use xlink:href="#r-n" x="4714"/><use xlink:href="#r-e" x="5267"/><use xlink:href="#r-a" x="5768"/><use xlink:href="#r-g" x="6284"/><use xlink:href="#r-e" x="6814"/></g>
<g fill="#1f4592" stroke="#1f4592" stroke-width="36" stroke-linejoin="round" transform="translate(1214.9 586.2) scale(0.02133 -0.02133)"><use xlink:href="#r-a" x="0"/><use xlink:href="#r-n" x="516"/><use xlink:href="#r-d" x="1069"/><use xlink:href="#r-u" x="1933"/><use xlink:href="#r-s" x="2444"/><use xlink:href="#r-a" x="2857"/><use xlink:href="#r-g" x="3373"/><use xlink:href="#r-e" x="3903"/></g>
<rect x="71" y="668.5" width="416.8" height="140.8" rx="12.7" fill="none" stroke="#1f4592" stroke-width="2.3"/>
<path d="M104.4 686.4 L140.9 686.4 A9 9 0 0 1 149.9 695.4 L149.9 717.4 A9 9 0 0 1 140.9 726.4 L116.7 726.4 L105.5 736.8 L106.2 726.4 L104.4 726.4 A9 9 0 0 1 95.4 717.4 L95.4 695.4 A9 9 0 0 1 104.4 686.4 Z" fill="none" stroke="#1f4592" stroke-width="3" stroke-linecap="round" stroke-linejoin="round"/>
<circle cx="111.7" cy="706.5" r="3.1" fill="#1f4592"/>
<circle cx="122.7" cy="706.5" r="3.1" fill="#1f4592"/>
<circle cx="134.1" cy="706.5" r="3.1" fill="#1f4592"/>
<g fill="#1f4592" stroke="#1f4592" stroke-width="36" stroke-linejoin="round" transform="translate(210.7 718.2) scale(0.02782 -0.02782)"><use xlink:href="#r-C" x="0"/><use xlink:href="#r-h" x="614"/><use xlink:href="#r-u" x="1150"/><use xlink:href="#r-n" x="1661"/><use xlink:href="#r-k" x="2214"/><use xlink:href="#r-T" x="2698"/><use xlink:href="#r-a" x="3127"/><use xlink:href="#r-b" x="3643"/><use xlink:href="#r-l" x="4178"/><use xlink:href="#r-e" x="4397"/></g>
<rect x="83.5" y="750.2" width="86" height="41.3" rx="10.7" fill="none" stroke="#1f4592" stroke-width="2.1"/>
<g fill="#1f4592" stroke="#1f4592" stroke-width="36" stroke-linejoin="round" transform="translate(98.4 776.2) scale(0.01994 -0.01994)"><use xlink:href="#r-s" x="0"/><use xlink:href="#r-y" x="416"/><use xlink:href="#r-s" x="863"/><use xlink:href="#r-t" x="1279"/><use xlink:href="#r-e" x="1536"/><use xlink:href="#r-m" x="2037"/></g>
<rect x="183.5" y="750.2" width="70.1" height="41.3" rx="10.7" fill="none" stroke="#1f4592" stroke-width="2.1"/>
<g fill="#1f4592" stroke="#1f4592" stroke-width="36" stroke-linejoin="round" transform="translate(200.6 776.2) scale(0.01955 -0.01955)"><use xlink:href="#r-u" x="0"/><use xlink:href="#r-s" x="511"/><use xlink:href="#r-e" x="924"/><use xlink:href="#r-r" x="1425"/></g>
<rect x="267.4" y="750.2" width="96.6" height="41.3" rx="10.7" fill="none" stroke="#1f4592" stroke-width="2.1"/>
<g fill="#1f4592" stroke="#1f4592" stroke-width="36" stroke-linejoin="round" transform="translate(278.9 776.2) scale(0.02018 -0.02018)"><use xlink:href="#r-a" x="0"/><use xlink:href="#r-s" x="516"/><use xlink:href="#r-s" x="932"/><use xlink:href="#r-i" x="1348"/><use xlink:href="#r-s" x="1575"/><use xlink:href="#r-t" x="1991"/><use xlink:href="#r-a" x="2248"/><use xlink:href="#r-n" x="2764"/><use xlink:href="#r-t" x="3317"/></g>
<rect x="376.9" y="750.2" width="101.5" height="41.3" rx="10.7" fill="none" stroke="#1f4592" stroke-width="2.1"/>
<g fill="#1f4592" stroke="#1f4592" stroke-width="36" stroke-linejoin="round" transform="translate(386.6 776.2) scale(0.01893 -0.01893)"><use xlink:href="#r-t" x="0"/><use xlink:href="#r-o" x="257"/><use xlink:href="#r-o" x="786"/><use xlink:href="#r-l" x="1315"/><use xlink:href="#r-underscore" x="1534"/><use xlink:href="#r-r" x="2028"/><use xlink:href="#r-e" x="2406"/><use xlink:href="#r-s" x="2907"/><use xlink:href="#r-u" x="3323"/><use xlink:href="#r-l" x="3834"/><use xlink:href="#r-t" x="4053"/></g>
<circle cx="80" cy="840.5" r="3" fill="#1d1e21"/>
<g fill="#1d1e21" stroke="#1d1e21" stroke-width="36" stroke-linejoin="round" transform="translate(94 846.2) scale(0.01841 -0.01841)"><use xlink:href="#r-o" x="0"/><use xlink:href="#r-r" x="529"/><use xlink:href="#r-d" x="896"/><use xlink:href="#r-e" x="1426"/><use xlink:href="#r-r" x="1927"/><use xlink:href="#r-e" x="2305"/><use xlink:href="#r-d" x="2806"/><use xlink:href="#r-c" x="3670"/><use xlink:href="#r-h" x="4152"/><use xlink:href="#r-u" x="4688"/><use xlink:href="#r-n" x="5199"/><use xlink:href="#r-k" x="5752"/><use xlink:href="#r-s" x="6236"/><use xlink:href="#r-f" x="6986"/><use xlink:href="#r-r" x="7265"/><use xlink:href="#r-o" x="7645"/><use xlink:href="#r-m" x="8174"/><use xlink:href="#r-a" x="9335"/><use xlink:href="#r-l" x="9851"/><use xlink:href="#r-l" x="10070"/><use xlink:href="#r-r" x="10623"/><use xlink:href="#r-o" x="11003"/><use xlink:href="#r-l" x="11532"/><use xlink:href="#r-e" x="11751"/><use xlink:href="#r-s" x="12252"/><use xlink:href="#r-a" x="13002"/><use xlink:href="#r-n" x="13518"/><use xlink:href="#r-d" x="14071"/><use xlink:href="#r-t" x="14935"/><use xlink:href="#r-o" x="15192"/><use xlink:href="#r-o" x="15721"/><use xlink:href="#r-l" x="16250"/><use xlink:href="#r-s" x="16469"/></g>
<circle cx="79.5" cy="866.5" r="3" fill="#1d1e21"/>
<g fill="#1d1e21" stroke="#1d1e21" stroke-width="36" stroke-linejoin="round" transform="translate(94 872.2) scale(0.01852 -0.01852)"><use xlink:href="#r-c" x="0"/><use xlink:href="#r-u" x="482"/><use xlink:href="#r-m" x="993"/><use xlink:href="#r-u" x="1820"/><use xlink:href="#r-l" x="2331"/><use xlink:href="#r-a" x="2550"/><use xlink:href="#r-t" x="3066"/><use xlink:href="#r-i" x="3352"/><use xlink:href="#r-v" x="3579"/><use xlink:href="#r-e" x="3977"/><use xlink:href="#r-underscore" x="4478"/><use xlink:href="#r-u" x="4972"/><use xlink:href="#r-s" x="5483"/><use xlink:href="#r-a" x="5896"/><use xlink:href="#r-g" x="6412"/><use xlink:href="#r-e" x="6942"/><use xlink:href="#r-t" x="7777"/><use xlink:href="#r-r" x="8063"/><use xlink:href="#r-a" x="8441"/><use xlink:href="#r-c" x="8957"/><use xlink:href="#r-k" x="9439"/><use xlink:href="#r-e" x="9902"/><use xlink:href="#r-d" x="10403"/></g>
<rect x="519.3" y="669.1" width="429.2" height="157.2" rx="16.8" fill="none" stroke="#2b5e2e" stroke-width="2.3"/>
<rect x="535" y="697.4" width="112.2" height="82.8" rx="16.2" fill="none" stroke="#2b5e2e" stroke-width="2.1"/>
<path d="M542.5 753.8 L558.1 733.8 A13 13 0 0 1 570.6 713.8 L565 723.1 L572.5 729.8 L579.8 722.3 A13 13 0 0 1 565.6 741.3 L551.3 761.3 A5.8 5.8 0 0 1 542.5 753.8 Z" fill="none" stroke="#1d1e21" stroke-width="2.5" stroke-linecap="round" stroke-linejoin="round"/>
<circle cx="547.9" cy="756.9" r="1.9" fill="#1d1e21"/>
<g fill="#1d1e21" stroke="#1d1e21" stroke-width="36" stroke-linejoin="round" transform="translate(595.7 747.2) scale(0.02236 -0.02236)"><use xlink:href="#r-T" x="0"/><use xlink:href="#r-o" x="429"/><use xlink:href="#r-o" x="958"/><use xlink:href="#r-l" x="1487"/></g>
<path d="M657.5 738.7 L689 738.7" fill="none" stroke="#1d1e21" stroke-width="2.8" stroke-linecap="round" stroke-linejoin="round"/>
<path d="M678.1 745.8 L689 738.7 L678.1 731.6" fill="none" stroke="#1d1e21" stroke-width="2.8" stroke-linecap="round" stroke-linejoin="round"/>
<rect x="701.1" y="686.5" width="230.9" height="126.7" rx="14" fill="none" stroke="#2b5e2e" stroke-width="2.1" stroke-dasharray="12 7" stroke-linecap="round"/>
<g fill="#2b5e2e" stroke="#2b5e2e" stroke-width="36" stroke-linejoin="round" transform="translate(764.2 718.2) scale(0.02532 -0.02532)"><use xlink:href="#r-S" x="0"/><use xlink:href="#r-a" x="552"/><use xlink:href="#r-n" x="1068"/><use xlink:href="#r-d" x="1621"/><use xlink:href="#r-b" x="2151"/><use xlink:href="#r-o" x="2686"/><use xlink:href="#r-x" x="3190"/></g>
<g fill="#1d1e21" stroke="#1d1e21" stroke-width="36" stroke-linejoin="round" transform="translate(769.7 740.2) scale(0.01839 -0.01839)"><use xlink:href="#r-parenleft" x="0"/><use xlink:href="#r-b" x="346"/><use xlink:href="#r-a" x="881"/><use xlink:href="#r-c" x="1397"/><use xlink:href="#r-k" x="1879"/><use xlink:href="#r-e" x="2342"/><use xlink:href="#r-n" x="2843"/><use xlink:href="#r-d" x="3396"/><use xlink:href="#r-parenright" x="3926"/></g>
<rect x="737.3" y="751.1" width="41" height="31.4" rx="3.5" fill="none" stroke="#1d1e21" stroke-width="2.4"/>
<path d="M737.3 766.4 L778.3 766.4" fill="none" stroke="#1d1e21" stroke-width="2.4" stroke-linecap="round" stroke-linejoin="round"/>
<circle cx="744.7" cy="758.9" r="2" fill="#1d1e21"/>
<circle cx="764.4" cy="758.9" r="2" fill="#1d1e21"/>
<circle cx="770.8" cy="758.9" r="2" fill="#1d1e21"/>
<circle cx="764.2" cy="774.5" r="2" fill="#1d1e21"/>
<circle cx="770.6" cy="774.5" r="2" fill="#1d1e21"/>
<g fill="#1d1e21" stroke="#1d1e21" stroke-width="36" stroke-linejoin="round" transform="translate(739.4 804.2) scale(0.01843 -0.01843)"><use xlink:href="#r-l" x="0"/><use xlink:href="#r-o" x="219"/><use xlink:href="#r-c" x="748"/><use xlink:href="#r-a" x="1230"/><use xlink:href="#r-l" x="1746"/></g>
<g transform="translate(847.9 739.8) scale(2.0542)" fill="none" stroke="#1d1e21" stroke-width="1.168" stroke-linecap="round" stroke-linejoin="round"><path d="M21 8a2 2 0 0 0-1-1.73l-7-4a2 2 0 0 0-2 0l-7 4A2 2 0 0 0 3 8v8a2 2 0 0 0 1 1.73l7 4a2 2 0 0 0 2 0l7-4A2 2 0 0 0 21 16Z"/><path d="m3.3 7 8.7 5 8.7-5"/><path d="M12 22V12"/></g>
<g fill="#1d1e21" stroke="#1d1e21" stroke-width="36" stroke-linejoin="round" transform="translate(823 804.2) scale(0.01666 -0.01666)"><use xlink:href="#r-O" x="0"/><use xlink:href="#r-p" x="643"/><use xlink:href="#r-e" x="1174"/><use xlink:href="#r-n" x="1675"/><use xlink:href="#r-S" x="2228"/><use xlink:href="#r-a" x="2780"/><use xlink:href="#r-n" x="3296"/><use xlink:href="#r-d" x="3849"/><use xlink:href="#r-b" x="4379"/><use xlink:href="#r-o" x="4914"/><use xlink:href="#r-x" x="5418"/></g>
<circle cx="530" cy="852.5" r="3" fill="#1d1e21"/>
<g fill="#1d1e21" stroke="#1d1e21" stroke-width="36" stroke-linejoin="round" transform="translate(545.5 858.7) scale(0.01727 -0.01727)"><use xlink:href="#r-t" x="0"/><use xlink:href="#r-o" x="257"/><use xlink:href="#r-o" x="786"/><use xlink:href="#r-l" x="1315"/><use xlink:href="#r-s" x="1534"/><use xlink:href="#r-r" x="2284"/><use xlink:href="#r-u" x="2681"/><use xlink:href="#r-n" x="3192"/><use xlink:href="#r-i" x="4079"/><use xlink:href="#r-n" x="4306"/><use xlink:href="#r-s" x="5193"/><use xlink:href="#r-a" x="5606"/><use xlink:href="#r-n" x="6122"/><use xlink:href="#r-d" x="6675"/><use xlink:href="#r-b" x="7205"/><use xlink:href="#r-o" x="7740"/><use xlink:href="#r-x" x="8244"/><use xlink:href="#r-b" x="9051"/><use xlink:href="#r-a" x="9586"/><use xlink:href="#r-c" x="10102"/><use xlink:href="#r-k" x="10584"/><use xlink:href="#r-e" x="11047"/><use xlink:href="#r-n" x="11548"/><use xlink:href="#r-d" x="12101"/><use xlink:href="#r-s" x="12631"/><use xlink:href="#r-parenleft" x="13381"/><use xlink:href="#r-l" x="13727"/><use xlink:href="#r-o" x="13946"/><use xlink:href="#r-c" x="14475"/><use xlink:href="#r-a" x="14957"/><use xlink:href="#r-l" x="15473"/><use xlink:href="#r-slash" x="16026"/><use xlink:href="#r-O" x="16796"/><use xlink:href="#r-p" x="17439"/><use xlink:href="#r-e" x="17970"/><use xlink:href="#r-n" x="18471"/><use xlink:href="#r-S" x="19024"/><use xlink:href="#r-a" x="19576"/><use xlink:href="#r-n" x="20092"/><use xlink:href="#r-d" x="20645"/><use xlink:href="#r-b" x="21175"/><use xlink:href="#r-o" x="21710"/><use xlink:href="#r-x" x="22214"/><use xlink:href="#r-parenright" x="22687"/></g>
<path d="M1271 827.5 L997.9 827.5 A18.6 18.6 0 0 1 979.3 808.9 L979.3 688.2 A19.3 19.3 0 0 1 998.6 668.9 L1441.5 668.9 A22.4 22.4 0 0 1 1463.9 691.3 L1463.9 808.5 A19 19 0 0 1 1459.2 821.2" fill="none" stroke="#c0621f" stroke-width="2.3" stroke-linecap="round" stroke-linejoin="round"/>
<g fill="#c0621f" stroke="#c0621f" stroke-width="36" stroke-linejoin="round" transform="translate(1017.2 708.2) scale(0.02232 -0.02232)"><use xlink:href="#r-r" x="0"/><use xlink:href="#r-e" x="378"/><use xlink:href="#r-c" x="879"/><use xlink:href="#r-a" x="1361"/><use xlink:href="#r-l" x="1877"/><use xlink:href="#r-l" x="2096"/></g>
<path d="M1011.5 724.3 L1119.5 724.3" fill="none" stroke="#1d1e21" stroke-width="3.2" stroke-linecap="round" stroke-linejoin="round"/>
<path d="M1105.7 733.3 L1119.5 724.3 L1105.7 715.3" fill="none" stroke="#1d1e21" stroke-width="3.2" stroke-linecap="round" stroke-linejoin="round"/>
<circle cx="1160.8" cy="704.2" r="16.5" fill="none" stroke="#c0621f" stroke-width="3.2"/>
<path d="M1137.3 747.5 C1137.3 739.3 1143.2 721.8 1161 721.8 C1178.9 721.8 1184.8 739.3 1184.8 747.5" fill="none" stroke="#c0621f" stroke-width="3.2" stroke-linecap="round" stroke-linejoin="round"/>
<g fill="#c0621f" stroke="#c0621f" stroke-width="36" stroke-linejoin="round" transform="translate(1133.3 778.2) scale(0.02174 -0.02174)"><use xlink:href="#r-A" x="0"/><use xlink:href="#r-g" x="581"/><use xlink:href="#r-e" x="1111"/><use xlink:href="#r-n" x="1612"/><use xlink:href="#r-t" x="2165"/></g>
<g fill="#c0621f" stroke="#c0621f" stroke-width="36" stroke-linejoin="round" transform="translate(1222.9 709.2) scale(0.02036 -0.02036)"><use xlink:href="#r-c" x="0"/><use xlink:href="#r-o" x="482"/><use xlink:href="#r-m" x="1011"/><use xlink:href="#r-m" x="1838"/><use xlink:href="#r-i" x="2665"/><use xlink:href="#r-t" x="2892"/></g>
<path d="M1206.5 724.6 L1297.5 724.6" fill="none" stroke="#1d1e21" stroke-width="3.2" stroke-linecap="round" stroke-linejoin="round"/>
<path d="M1283.7 733.6 L1297.5 724.6 L1283.7 715.6" fill="none" stroke="#1d1e21" stroke-width="3.2" stroke-linecap="round" stroke-linejoin="round"/>
<rect x="1276.8" y="774.7" width="178.6" height="58.9" rx="15" fill="none" stroke="#c0621f" stroke-width="2" stroke-dasharray="10.3 6.2" stroke-linecap="round"/>
<path d="M1315.1 711.7 L1315.1 770.5 A58.45 12.9 0 0 0 1432 770.5 L1432 711.7" fill="#fbf6ec" stroke="#65290c" stroke-width="2.4" stroke-linecap="round" stroke-linejoin="round"/>
<path d="M1315.1 711.7 A58.45 12.95 0 0 1 1432 711.7 A58.45 12.95 0 0 1 1315.1 711.7 Z" fill="#f9ebd0" stroke="#65290c" stroke-width="2.4" stroke-linecap="round" stroke-linejoin="round"/>
<g fill="#1d1e21" stroke="#1d1e21" stroke-width="36" stroke-linejoin="round" transform="translate(1338.1 749.2) scale(0.01952 -0.01952)"><use xlink:href="#r-M" x="0"/><use xlink:href="#r-e" x="838"/><use xlink:href="#r-m" x="1339"/><use xlink:href="#r-o" x="2166"/><use xlink:href="#r-r" x="2695"/><use xlink:href="#r-y" x="3092"/></g>
<g fill="#1d1e21" stroke="#1d1e21" stroke-width="36" stroke-linejoin="round" transform="translate(1350.3 773.2) scale(0.02099 -0.02099)"><use xlink:href="#r-S" x="0"/><use xlink:href="#r-t" x="552"/><use xlink:href="#r-o" x="809"/><use xlink:href="#r-r" x="1338"/><use xlink:href="#r-e" x="1716"/></g>
<rect x="1289.3" y="791.5" width="52.5" height="31.1" rx="8.8" fill="none" stroke="#1d1e21" stroke-width="2"/>
<rect x="1351.5" y="791.5" width="92.2" height="31.1" rx="8.8" fill="none" stroke="#1d1e21" stroke-width="2"/>
<g fill="#1d1e21" stroke="#1d1e21" stroke-width="36" stroke-linejoin="round" transform="translate(1299.5 812.2) scale(0.01680 -0.01680)"><use xlink:href="#r-l" x="0"/><use xlink:href="#r-o" x="219"/><use xlink:href="#r-c" x="748"/><use xlink:href="#r-a" x="1230"/><use xlink:href="#r-l" x="1746"/></g>
<g fill="#1d1e21" stroke="#1d1e21" stroke-width="36" stroke-linejoin="round" transform="translate(1360 812.2) scale(0.01576 -0.01576)"><use xlink:href="#r-O" x="0"/><use xlink:href="#r-p" x="643"/><use xlink:href="#r-e" x="1174"/><use xlink:href="#r-n" x="1675"/><use xlink:href="#r-V" x="2228"/><use xlink:href="#r-i" x="2764"/><use xlink:href="#r-k" x="2991"/><use xlink:href="#r-i" x="3475"/><use xlink:href="#r-n" x="3702"/><use xlink:href="#r-g" x="4255"/></g>
<circle cx="989.5" cy="856.5" r="3" fill="#1d1e21"/>
<g fill="#1d1e21" stroke="#1d1e21" stroke-width="36" stroke-linejoin="round" transform="translate(1003.4 863.2) scale(0.01866 -0.01866)"><use xlink:href="#r-r" x="0"/><use xlink:href="#r-e" x="378"/><use xlink:href="#r-c" x="879"/><use xlink:href="#r-a" x="1361"/><use xlink:href="#r-l" x="1877"/><use xlink:href="#r-l" x="2096"/><use xlink:href="#r-b" x="2649"/><use xlink:href="#r-e" x="3184"/><use xlink:href="#r-f" x="3685"/><use xlink:href="#r-o" x="3946"/><use xlink:href="#r-r" x="4475"/><use xlink:href="#r-e" x="4853"/><use xlink:href="#r-r" x="5688"/><use xlink:href="#r-u" x="6085"/><use xlink:href="#r-n" x="6596"/><use xlink:href="#r-comma" x="7149"/><use xlink:href="#r-c" x="7647"/><use xlink:href="#r-o" x="8129"/><use xlink:href="#r-m" x="8658"/><use xlink:href="#r-m" x="9485"/><use xlink:href="#r-i" x="10312"/><use xlink:href="#r-t" x="10539"/><use xlink:href="#r-a" x="11159"/><use xlink:href="#r-f" x="11675"/><use xlink:href="#r-t" x="11954"/><use xlink:href="#r-e" x="12211"/><use xlink:href="#r-r" x="12712"/><use xlink:href="#r-r" x="13443"/><use xlink:href="#r-u" x="13840"/><use xlink:href="#r-n" x="14351"/></g>
<path d="M98.9 906.5 L1438.2 914.9 A20 20 0 0 1 1458.2 934.9 L1458.2 979.5 A20 20 0 0 1 1438.2 999.5 L98.9 995.1 A20 20 0 0 1 78.9 975.1 L78.9 926.5 A20 20 0 0 1 98.9 906.5 Z" fill="none" stroke="#4d2f82" stroke-width="2" stroke-linecap="round" stroke-linejoin="round" stroke-dasharray="11.5 6.5"/>
<g fill="#4d2f82" stroke="#4d2f82" stroke-width="36" stroke-linejoin="round" transform="translate(101.2 945.2) scale(0.02680 -0.02680)"><use xlink:href="#r-S" x="0"/><use xlink:href="#r-e" x="552"/><use xlink:href="#r-s" x="1053"/><use xlink:href="#r-s" x="1469"/><use xlink:href="#r-i" x="1885"/><use xlink:href="#r-o" x="2112"/><use xlink:href="#r-n" x="2641"/></g>
<g fill="#4d2f82" stroke="#4d2f82" stroke-width="36" stroke-linejoin="round" transform="translate(99.8 976.2) scale(0.02801 -0.02801)"><use xlink:href="#r-l" x="0"/><use xlink:href="#r-i" x="219"/><use xlink:href="#r-f" x="446"/><use xlink:href="#r-e" x="707"/><use xlink:href="#r-c" x="1208"/><use xlink:href="#r-y" x="1690"/><use xlink:href="#r-c" x="2122"/><use xlink:href="#r-l" x="2604"/><use xlink:href="#r-e" x="2823"/></g>
<rect x="281.6" y="918.7" width="65.8" height="66" rx="15" fill="none" stroke="#4d2f82" stroke-width="2.1"/>
<rect x="491.8" y="919.4" width="68.3" height="66.2" rx="15" fill="none" stroke="#4d2f82" stroke-width="2.1"/>
<rect x="710.2" y="922.2" width="64.3" height="63.7" rx="15" fill="none" stroke="#4d2f82" stroke-width="2.1"/>
<rect x="921.2" y="924.5" width="62.4" height="62.5" rx="15" fill="none" stroke="#4d2f82" stroke-width="2.1"/>
<rect x="1103.3" y="924.5" width="63.4" height="63" rx="15" fill="none" stroke="#4d2f82" stroke-width="2.1"/>
<rect x="1313" y="925.6" width="61.4" height="61.9" rx="15" fill="none" stroke="#4d2f82" stroke-width="2.1"/>
<circle cx="302.3" cy="967.5" r="4.7" fill="none" stroke="#2f1458" stroke-width="2.4"/>
<circle cx="315.5" cy="935.2" r="4.6" fill="none" stroke="#2f1458" stroke-width="2.4"/>
<circle cx="328.4" cy="945.1" r="3.6" fill="none" stroke="#2f1458" stroke-width="2.4"/>
<path d="M305.6 963.9 L315.7 950.6 L315.6 939.8 M315.7 950.6 Q319.5 947.2 325 946.3" fill="none" stroke="#2f1458" stroke-width="2.4" stroke-linecap="round" stroke-linejoin="round"/>
<path d="M546.8 957.6 A21.2 21.2 0 1 1 505.6 947.4 A21.2 21.2 0 1 1 546.8 957.6" fill="none" stroke="#2f1458" stroke-width="2.8" stroke-linecap="round" stroke-linejoin="round" stroke-dasharray="6.07 7.25"/>
<path d="M724.9 937.5 L739.3 951.9 M759.9 938.1 L745.4 951.2 Q743.3 953.2 741.4 952.4 M738.6 956.3 L725.3 970 M747.8 957.5 L759.9 970" fill="none" stroke="#2f1458" stroke-width="2.6" stroke-linecap="round" stroke-linejoin="round"/>
<circle cx="742" cy="953.2" r="1.6" fill="#9c86be"/>
<path d="M969.4 949.9 A17.8 17.8 0 1 0 969.7 961.1" fill="none" stroke="#2f1458" stroke-width="2.8" stroke-linecap="round" stroke-linejoin="round"/>
<path d="M969.6 941.6 L969.6 950 L962.8 947.8 M962.8 962 L969.8 959.4 L970.2 968.4" fill="none" stroke="#2f1458" stroke-width="2.8" stroke-linecap="round" stroke-linejoin="round"/>
<path d="M1118.9 949.3 L1129.3 949.3 L1129.3 939.9" fill="none" stroke="#2f1458" stroke-width="2.8" stroke-linecap="round" stroke-linejoin="round"/>
<path d="M1118.9 938.7 L1129.3 949.3" fill="none" stroke="#2f1458" stroke-width="2.8" stroke-linecap="round" stroke-linejoin="round"/>
<path d="M1151.1 949.3 L1141.5 949.3 L1141.5 939.9" fill="none" stroke="#2f1458" stroke-width="2.8" stroke-linecap="round" stroke-linejoin="round"/>
<path d="M1151.9 938.7 L1141.5 949.3" fill="none" stroke="#2f1458" stroke-width="2.8" stroke-linecap="round" stroke-linejoin="round"/>
<path d="M1118.9 962.5 L1129.3 962.5 L1129.3 972.1" fill="none" stroke="#2f1458" stroke-width="2.8" stroke-linecap="round" stroke-linejoin="round"/>
<path d="M1118.4 972.2 L1129.3 962.5" fill="none" stroke="#2f1458" stroke-width="2.8" stroke-linecap="round" stroke-linejoin="round"/>
<path d="M1151.1 962.5 L1141.5 962.5 L1141.5 972.1" fill="none" stroke="#2f1458" stroke-width="2.8" stroke-linecap="round" stroke-linejoin="round"/>
<path d="M1151.9 972.6 L1141.5 962.5" fill="none" stroke="#2f1458" stroke-width="2.8" stroke-linecap="round" stroke-linejoin="round"/>
<circle cx="1341.6" cy="953.5" r="14.7" fill="none" stroke="#2f1458" stroke-width="2.8"/>
<path d="M1351.7 964.2 L1361.1 974.1" fill="none" stroke="#2f1458" stroke-width="2.8" stroke-linecap="round" stroke-linejoin="round"/>
<g fill="#1d1e21" stroke="#1d1e21" stroke-width="36" stroke-linejoin="round" transform="translate(364.2 960.2) scale(0.02103 -0.02103)"><use xlink:href="#r-f" x="0"/><use xlink:href="#r-o" x="261"/><use xlink:href="#r-r" x="790"/><use xlink:href="#r-k" x="1187"/></g>
<g fill="#1d1e21" stroke="#1d1e21" stroke-width="36" stroke-linejoin="round" transform="translate(578.9 961.2) scale(0.02041 -0.02041)"><use xlink:href="#r-d" x="0"/><use xlink:href="#r-e" x="530"/><use xlink:href="#r-t" x="1031"/><use xlink:href="#r-a" x="1288"/><use xlink:href="#r-c" x="1804"/><use xlink:href="#r-h" x="2286"/></g>
<g fill="#1d1e21" stroke="#1d1e21" stroke-width="36" stroke-linejoin="round" transform="translate(789.3 961.2) scale(0.01962 -0.01962)"><use xlink:href="#r-m" x="0"/><use xlink:href="#r-e" x="827"/><use xlink:href="#r-r" x="1328"/><use xlink:href="#r-g" x="1695"/><use xlink:href="#r-e" x="2225"/></g>
<g fill="#1d1e21" stroke="#1d1e21" stroke-width="36" stroke-linejoin="round" transform="translate(998.3 962.2) scale(0.01977 -0.01977)"><use xlink:href="#r-l" x="0"/><use xlink:href="#r-o" x="219"/><use xlink:href="#r-o" x="748"/><use xlink:href="#r-p" x="1277"/></g>
<g fill="#1d1e21" stroke="#1d1e21" stroke-width="36" stroke-linejoin="round" transform="translate(1180 962.2) scale(0.01785 -0.01785)"><use xlink:href="#r-c" x="0"/><use xlink:href="#r-o" x="482"/><use xlink:href="#r-m" x="1011"/><use xlink:href="#r-p" x="1838"/><use xlink:href="#r-r" x="2369"/><use xlink:href="#r-e" x="2747"/><use xlink:href="#r-s" x="3248"/><use xlink:href="#r-s" x="3664"/></g>
<g fill="#1d1e21" stroke="#1d1e21" stroke-width="36" stroke-linejoin="round" transform="translate(1388.7 963.2) scale(0.02086 -0.02086)"><use xlink:href="#r-t" x="0"/><use xlink:href="#r-r" x="286"/><use xlink:href="#r-a" x="664"/><use xlink:href="#r-c" x="1180"/><use xlink:href="#r-e" x="1662"/></g>
<path d="M428.5 952.7 L468 952.7" fill="none" stroke="#1d1e21" stroke-width="2.6" stroke-linecap="round" stroke-linejoin="round"/>
<path d="M456.7 960.1 L468 952.7 L456.7 945.3" fill="none" stroke="#1d1e21" stroke-width="2.6" stroke-linecap="round" stroke-linejoin="round"/>
<path d="M655.5 954.2 L690 954.2" fill="none" stroke="#1d1e21" stroke-width="2.6" stroke-linecap="round" stroke-linejoin="round"/>
<path d="M678.7 961.6 L690 954.2 L678.7 946.8" fill="none" stroke="#1d1e21" stroke-width="2.6" stroke-linecap="round" stroke-linejoin="round"/>
<path d="M862.5 955.3 L899 955.3" fill="none" stroke="#1d1e21" stroke-width="2.6" stroke-linecap="round" stroke-linejoin="round"/>
<path d="M887.7 962.7 L899 955.3 L887.7 947.9" fill="none" stroke="#1d1e21" stroke-width="2.6" stroke-linecap="round" stroke-linejoin="round"/>
<path d="M1051.5 956.2 L1087 956.2" fill="none" stroke="#1d1e21" stroke-width="2.6" stroke-linecap="round" stroke-linejoin="round"/>
<path d="M1075.7 963.6 L1087 956.2 L1075.7 948.8" fill="none" stroke="#1d1e21" stroke-width="2.6" stroke-linecap="round" stroke-linejoin="round"/>
<path d="M1265.5 955.7 L1295 955.7" fill="none" stroke="#1d1e21" stroke-width="2.6" stroke-linecap="round" stroke-linejoin="round"/>
<path d="M1283.7 963.1 L1295 955.7 L1283.7 948.3" fill="none" stroke="#1d1e21" stroke-width="2.6" stroke-linecap="round" stroke-linejoin="round"/>
</svg>
